<svg xmlns="http://www.w3.org/2000/svg" aria-hidden="true" preserveAspectRatio="none" viewBox="0 0 185.5 6.2">
  <path d="M185.5 2.53c-1.06 3.45-6.38 1.82-9.72 1.97-1.6.07-3.81.87-6.01.93-2.17.06-4.16-.56-5.62.23-27.43-.9-52.99.17-76.43-.07-5.95-.06-10.94.28-16.8-.04-4.93-.26-9.66.49-14.54.55-2.18.03-4.4-.29-6.56-.3-2.08 0-4.16.16-6.28.2-1.76.03-3.42-.19-5.25-.24-2.19-.06-4.44.43-6.62.42-1.78 0-3.62-.26-5.58-.25-5.28.02-14.99-1.53-21.7-.5-1.55-.88-2.74-2-4.39-2.82C8.5.04 19.79 2.53 28.76 1.5c3.42.92 7.75.22 11.83.29 5.65.1 11.6.53 16.21-.71 2.56.73 5.03-.05 7.59-.14 1.53-.05 3.03.22 4.6.21 2.98-.02 5.97-.53 8.94-.56 1.8-.02 3.78.55 5.56.49 2.75-.1 5.26-.6 7.96-.61 2.78 0 5.67.43 8.53.38 1.35-.02 2.67-.46 4-.54 5.02-.29 10.35.06 15.48-.03 1.42-.03 2.91-.29 4.31-.29 2.65 0 5.23.58 7.86.59 3.75.01 7.42-.53 11.24-.46 4.94.09 9.51.15 14.46.41 2.35.12 6.32-.22 8.22.13 5.54 1.02 13.97.07 19.94 1.86Z" style="fill-rule:evenodd;transform:none;transform-origin:left 3.08508px" transform-origin="left 3.085075706243515px"/>
</svg>
