<?xml version="1.0" encoding="utf-8"?>
<!-- Generator: Adobe Illustrator 26.5.0, SVG Export Plug-In . SVG Version: 6.00 Build 0)  -->
<svg version="1.1" id="Layer_1" xmlns="http://www.w3.org/2000/svg" xmlns:xlink="http://www.w3.org/1999/xlink" x="0px" y="0px"
	 viewBox="0 0 1359.6 405.4" style="enable-background:new 0 0 1359.6 405.4;" xml:space="preserve">
<style type="text/css">
	.st0{fill:#F8F8F8;}
</style>
<g>
	<path class="st0" d="M676.4,200.7c4.3,5,8.2,9.6,12.4,14.5c5.6-8,5-17.3,7.6-25.8c8.8,0,17.6,0,26.6,0
		c-1.5,16.2-5.7,31.3-15.8,44.2c5.2,5.6,12.2,7.6,18.4,11.9c-5.4,8-10.8,16-16.2,24.1c-9-4.2-17.1-8.9-24.1-15.3
		c-4.5,2-8.6,4.1-12.9,5.7c-15.7,5.9-31.7,7.4-47.9,2.1c-4.4-1.5-8.8-3.8-12.6-6.5c-12.4-8.9-16.7-23.5-11.6-38.5
		c4.5-13.1,13.2-22.5,25.6-28.4c0.9-0.4,1.8-0.8,2.8-1.3c0.9-0.4,1.8-0.8,2.8-1.3c-0.3-1.7-0.5-3.2-0.8-4.8
		c-5.1-30.3,22.7-55.3,53-46.1c15.7,4.8,23.3,19.2,18.7,35.2c-3.4,12.1-10.6,21.3-21.4,27.7C679.8,198.7,678.4,199.5,676.4,200.7z
		 M644.8,209.2c-4.8,1.1-9.2,2.3-13,5c-7.9,5.6-7.9,14.5,0.3,19.3c10.8,6.3,22.1,5.1,34,1.3C658.7,225.9,651.8,217.6,644.8,209.2z
		 M660.6,179.1c3.4-1.4,6.6-2.6,9.7-4.1c2.7-1.3,4.4-3.6,5.3-6.5c1-3.1,0.3-5.5-2.8-6.7c-2.2-0.9-4.7-1.3-7.1-1.3
		c-4.7,0.1-7.3,2.8-7.7,7.5C657.7,171.7,658.4,175.1,660.6,179.1z"/>
	<path class="st0" d="M369.3,185.5c0,9.2,0,17.8,0,27c-4.5,0.3-9,0.1-13.6,0.1c-4.5,0-8.9,0-13.4,0c-4.6,0-9.2,0-13.9,0
		c-4.5,0-8.9,0-13.4,0c-4.6,0-9.2,0-13.9,0c-4.4,0-8.9,0-13.7,0c0,8.5,0,16.6,0,25.1c27.2,0,54.3,0,81.2,0c1,3.4,1.2,19.2,0.6,26.5
		c-3.2,1-105,1.1-109.2,0.1c0-43.6,0-87.2,0-131.1c36.5,0,72.8,0,109.3,0c0,9,0,17.7,0,26.9c-27.2,0-54.3,0-81.2,0
		c-1,3.3-1.3,18.9-0.4,25.4C314.7,185.5,341.9,185.5,369.3,185.5z"/>
	<path class="st0" d="M933.4,264.9c-36.5,0-72.5,0-108.5,0c-0.9-3.3-1.1-126.4-0.2-131.6c36.1,0,72.2,0,108.7,0c0,8.8,0,17.5,0,26.9
		c-9,0.3-18,0.1-27,0.1c-9.1,0-18.2,0-27.3,0c-9.1,0-18.1,0-27.5,0c0,8.5,0,16.5,0,25.1c8.9,0.4,18,0.1,27,0.2c9.1,0,18.2,0,27.3,0
		c9.1,0,18.1,0,27.5,0c0,9.1,0,17.8,0,27c-27.2,0-54.4,0-81.8,0c0,8.5,0,16.6,0,25.1c5.5,0.3,10.9,0.1,16.3,0.1c5.5,0,11,0,16.4,0
		c5.3,0,10.7,0,16,0c5.5,0,11,0,16.4,0c5.4,0,10.9,0,16.6,0C933.4,247,933.4,255.8,933.4,264.9z"/>
	<path class="st0" d="M108.9,133.4c0,9,0,17.8,0,26.9c-27.3,0-54.4,0-81.8,0c0,8.4,0,16.5,0,25.1c5.3,0.4,10.7,0.1,16.1,0.2
		c5.5,0.1,11,0,16.5,0c5.3,0,10.7,0,16,0c5.5,0,11,0,16.5,0c5.5,0,10.9,0,16.7,0c0,9.1,0,17.8,0,26.9c-27.1,0-54.2,0-81.1,0
		c-1.1,3.3-1.3,18.8-0.5,25.2c27,0,54.1,0,81,0c1.1,3.3,1.4,21.6,0.5,27.1c-36.1,0-72.3,0-108.7,0c0-43.9,0-87.5,0-131.4
		C36.2,133.4,72.4,133.4,108.9,133.4z"/>
	<path class="st0" d="M1104,133.2c0.9-0.1,1.6-0.2,2.3-0.2c22.9,0,45.9-0.1,68.8,0.1c4.7,0,9.5,0.8,14.1,2c15.1,4.2,25,13.9,29.3,29
		c3.2,11.1,3.1,22.2-0.3,33.3c-3.6,11.8-11,20.4-22.3,25.6c-1,0.5-2,1-3.5,1.7c9.3,13.3,18.5,26.3,28,39.8c-1.7,0.2-2.8,0.4-3.9,0.4
		c-8.7,0-17.3-0.1-26,0.1c-2.5,0-3.9-1-5.3-2.9c-7.3-10.6-14.7-21-22-31.6c-1.6-2.3-3.2-3.2-6-3.1c-7.4,0.2-14.7,0.1-22.1,0.1
		c-1.3,0-2.6,0.1-4.3,0.2c0,12.3,0,24.5,0,37c-9.2,0-17.9,0-26.7,0C1103.4,261.8,1103.1,139.3,1104,133.2z M1131,200.2
		c1.2,0.1,2,0.2,2.8,0.2c13.4,0,26.8,0,40.2,0c2.1,0,4.3-0.3,6.4-0.7c6.3-1.2,10.3-4.9,11.9-11.1c1.4-5.4,1.4-10.8,0.1-16.2
		c-1.6-6.6-6-10.3-12.6-11.4c-2.4-0.4-4.9-0.5-7.3-0.6c-12.7-0.1-25.4,0-38,0c-1.1,0-2.2,0.2-3.5,0.4
		C1131,173.9,1131,186.8,1131,200.2z"/>
	<path class="st0" d="M389.4,228.1c9-1.9,17.4-3.7,25.8-5.5c0.4,0.5,0.8,0.7,1,1.1c1.8,5,5.4,8.3,10.1,10c4.6,1.6,9.4,3,14.2,3.6
		c11.1,1.4,22.2,0.9,33-2c2.5-0.7,5-1.6,7.2-2.9c6.6-3.8,6.5-10.4-0.2-14.2c-5-2.8-10.5-4-16.1-4.5c-5.6-0.5-11.2-0.8-16.8-0.9
		c-10.1-0.2-20.2-1.1-29.8-4.5c-4.7-1.6-9.5-3.7-13.6-6.4c-21.6-14.2-21.3-44.3,0.5-58.2c6.6-4.3,14-6.9,21.7-8.3
		c17.1-3.1,34.1-3.4,51,1.2c7.6,2.1,14.6,5.4,20.6,10.5c7.1,6,11.5,13.5,13.8,23.1c-8.8,1.9-17.5,3.8-26.4,5.7
		c-2.9-8.5-9.6-11.8-17.3-13.5c-13.9-3-27.8-2.7-41.5,1.1c-2.7,0.7-5.5,2-7.8,3.6c-4.6,3.2-4.6,8.6-0.1,12c4.1,3.1,9.1,4.5,14.1,5.1
		c6.7,0.8,13.5,1.3,20.3,1.5c9.7,0.3,19.3,1.1,28.6,3.8c6.4,1.9,12.4,4.6,17.7,8.7c17.8,14,17.9,40.4,0.1,54.4
		c-7.7,6-16.6,9.2-26.1,10.7c-16.4,2.7-32.7,3-48.9-1.2c-8.5-2.2-16.2-5.9-22.7-12C395.4,244.1,391.3,237,389.4,228.1z"/>
	<path class="st0" d="M1233,228.1c8.9-1.9,17.4-3.7,26.2-5.6c3.4,9.4,11.2,12.5,19.8,14.1c12.8,2.3,25.6,1.9,38.2-1.3
		c2.2-0.6,4.4-1.5,6.4-2.5c3.1-1.6,5.6-3.6,5.5-7.6c-0.1-3.7-2.5-5.7-5.4-7.2c-4.9-2.6-10.3-3.8-15.7-4.3
		c-5.5-0.5-10.9-0.8-16.4-0.9c-10.3-0.2-20.4-1.3-30.3-4.4c-5.5-1.8-10.7-4.3-15.4-7.7c-18.6-13.5-18.8-41.8-0.1-55.4
		c7.1-5.2,15.2-8.3,23.8-9.9c17.2-3.2,34.4-3.5,51.4,1.1c8.2,2.2,15.6,5.9,21.9,11.7c6.3,5.8,10.4,12.9,12.4,21.9
		c-8.9,1.9-17.5,3.7-26.4,5.6c-2.7-8.3-9.1-11.6-16.6-13.3c-14.2-3.2-28.3-2.8-42.4,0.9c-2.3,0.6-4.7,1.6-6.7,2.9
		c-5.9,3.7-6,10.1,0.2,13.4c4,2.1,8.5,3.7,13,4.4c6.7,1,13.5,1.4,20.2,1.6c9.7,0.3,19.3,1.1,28.6,3.8c6,1.8,11.6,4.3,16.7,8
		c19.3,14.3,19.1,42.2-0.4,56.2c-7.8,5.6-16.7,8.5-26,9.9c-14.6,2.3-29.3,2.5-43.9-0.6c-7.1-1.5-13.9-4-20-7.9
		C1242.1,248.7,1235.8,240.1,1233,228.1z"/>
	<path class="st0" d="M1009.8,133.2c5.9,0,11.6,0,17.6,0c20.3,43.7,40.6,87.3,61,131.3c-1.2,0.2-2.1,0.5-3.1,0.5
		c-7.9,0-15.9,0-23.8,0.1c-2.2,0-3.5-0.6-4.3-2.7c-1.4-3.3-3-6.5-4.5-9.8c-0.7-1.6-1.7-2.5-3.6-2.5c-20.8,0.1-41.5,0.1-62.3,0.1
		c-0.3,0-0.5,0.2-1.3,0.4c-1.8,3.7-3.7,7.7-5.5,11.8c-0.8,1.7-1.7,2.7-3.9,2.7c-8.5-0.1-17-0.1-25.5-0.1c-0.4,0-0.8-0.2-1.8-0.5
		C969.2,220.7,989.5,177,1009.8,133.2z M1018.6,179.1c-7,15.1-13.6,29.2-20.3,43.6c13.7,0,26.7,0,40.4,0
		C1032,208.2,1025.6,194.2,1018.6,179.1z"/>
	<path class="st0" d="M120.6,133.2c10.7,0,20.6,0,30.9,0c10.8,19.7,21.7,39.5,33.1,60.1c11.2-20.4,22.1-40.1,33-60
		c10,0,20.1,0,30.3,0c0.3,1.8-1,3.1-1.8,4.5c-15.2,27.7-30.3,55.4-45.6,83c-1.7,3-2.4,6-2.4,9.4c0.1,9.9,0.1,19.9,0.1,29.9
		c0,1.4,0,2.9,0,4.9c-9,0.1-17.8,0.1-27,0c-0.1-1.7-0.2-3.2-0.2-4.7c0-10.2-0.1-20.5,0-30.7c0-3.2-0.7-5.9-2.3-8.6
		c-15.3-27.6-30.5-55.3-45.7-83C122.3,136.6,121.6,135.2,120.6,133.2z"/>
	<path class="st0" d="M612,405.4c0-24.5,0-48.7,0-73c20.2,0,40,0,60.4,0c0.6,4.8,0.2,9.7,0.2,14.9c-5.2,0.6-10.2,0.2-15.2,0.3
		c-4.9,0.1-9.8,0-14.7,0c-5,0-10.1,0-15.7,0c-0.3,4.6-0.3,8.9,0.1,13.8c15.1,0,30,0,45.2,0c0,5.2,0,9.8,0,15c-15,0-30,0-45.2,0
		c0,4.8,0,9,0,13.8c1.4,0.1,2.9,0.3,4.4,0.3c12,0,23.9,0,35.9,0c1.6,0,3.1,0,4.9,0c0,5.2,0,9.9,0,14.9
		C652.3,405.4,632.3,405.4,612,405.4z"/>
	<path class="st0" d="M783.7,17.7c-15.3,0-30,0-45.2,0c-0.3,4.6-0.2,9-0.1,13.7c15.1,0,29.9,0,45.1,0c0,5.2,0,10,0,15.2
		c-14.9,0-29.7,0-44.6,0c-1,4.6-0.3,8.9-0.5,13.8c5.2,0.4,10.1,0.1,15.1,0.2c4.9,0,9.8,0,14.7,0c5,0,10,0,15.4,0c0,5.2,0,10,0,15
		c-20.1,0-39.9,0-59.8,0c-1-3-1.4-63.1-0.5-72.4c3-0.9,52.5-1.2,60.4-0.3C784,7.6,783.8,12.4,783.7,17.7z"/>
	<path class="st0" d="M700.4,405.5c-5.5,0-10.2,0-15.2,0c0-24.4,0-48.5,0-73.2c3.4,0,6.5-0.3,9.6,0.1c1.3,0.2,2.6,1.6,3.6,2.7
		c11,12.2,22,24.5,32.9,36.7c1.5,1.7,3.1,3.4,4.7,5.2c1.4-1.3,0.9-2.9,0.9-4.2c0-11.8,0-23.6,0-35.5c0-1.5,0-3.1,0-4.9
		c5.2,0,9.9,0,14.6,0c0.8,3.2,1.1,66,0.3,73.1c-3.2,0-6.4,0.3-9.6-0.1c-1.3-0.2-2.6-1.6-3.6-2.7c-11.5-12.8-22.9-25.6-34.3-38.4
		c-1-1.1-2.1-2.2-3.9-4.1C700.4,376,700.4,390.6,700.4,405.5z"/>
	<path class="st0" d="M597.5,348.8c-4.3,2.4-8.4,4.7-12.4,7c-0.5-0.2-0.8-0.2-1-0.4c-7.5-8-20.7-10.3-30.5-5.3
		c-4.1,2.1-6.7,5.4-8,9.7c-1.7,5.6-1.7,11.4-0.4,17.1c1.5,6.8,5.8,11.2,12.6,12.8c5.9,1.4,11.7,1.4,17.5-0.5
		c5.8-1.8,9.4-5.8,11.1-12.3c-8.3-0.7-16.3,0.1-24.5-0.5c0-4.9,0-9.7,0-14.7c13.5,0,26.7,0,40.5,0c0,2.3,0.3,4.6,0,6.8
		c-0.6,5-0.8,10.1-2.2,14.9c-3.3,10.9-10.9,17.7-21.9,20.7c-7.8,2.1-15.7,2.3-23.5,0.4c-13-3.1-21.2-11.1-24.4-24.1
		c-1.8-7.4-1.9-14.9-0.1-22.3c3.1-13.2,11.3-21.4,24.5-24.5c8.8-2.1,17.5-1.7,26,1.2C587.9,337.3,593.6,341.7,597.5,348.8z"/>
	<path class="st0" d="M695.3,31.4c0-9.7,0-19,0-28.6c5.1,0,9.8,0,14.5,0c0.9,2.9,1.3,65.3,0.3,72.9c-4.7,0.4-9.5,0.2-14.7,0.1
		c0-9.6,0-18.9,0-28.1c-3.4-1-29.1-1.3-34.7-0.4c0,9.2,0,18.5,0,28.3c-5.2,0.5-10,0.2-15.1,0.3c0-24.5,0-48.7,0-73.1
		c4.9,0,9.6,0,14.8,0c0,9.5,0,19,0,28.6C672.3,31.4,683.4,31.4,695.3,31.4z"/>
	<path class="st0" d="M530.1,405.6c-5.9,0-11.1,0-16.6,0c-0.9-1.9-2-3.9-2.9-5.9c-0.6-1.3-1.4-2.1-2.9-2.1
		c-11.4,0.1-22.8,0.2-34.2,0.3c-0.1,0-0.3,0.1-0.7,0.3c-1.2,2.3-2.4,4.9-3.7,7.4c-5.5,0-10.7,0-16.7,0
		c11.4-24.6,22.6-48.7,33.9-72.9c3.3,0,6.4,0,9.9,0C507.4,356.6,518.6,380.7,530.1,405.6z M491.5,358.6
		c-3.7,5.6-10.3,20.6-10.5,23.5c6.9,0,13.8,0,21.4,0C498.7,374.2,495.2,366.6,491.5,358.6z"/>
	<path class="st0" d="M819.3,360.6c-0.4-0.6-0.8-0.9-0.9-1.3c-2.3-7-7.6-10.5-14.5-11.3c-4.5-0.5-9.2-0.2-13.7,0.6
		c-6.7,1.2-10.8,5.8-12.4,12.4c-1.3,5.3-1.4,10.6-0.1,15.9c1.6,6.4,5.4,10.7,11.9,12.5c5.5,1.5,11.1,1.5,16.7,0.2
		c5.7-1.4,9.9-4.6,11.9-10.2c0.1-0.4,0.3-0.8,0.5-1.2c0.1-0.1,0.2-0.2,0.7-0.6c4.2,1.1,8.8,2.4,13.6,3.6c-0.2,1.2-0.2,2.1-0.5,3
		c-4,11.1-12,17.7-23.4,20.3c-7.4,1.7-14.9,1.6-22.3-0.2c-13.9-3.4-22.8-13.6-24.7-28.4c-0.8-6.2-0.7-12.4,0.8-18.5
		c2.8-11.3,9.7-19.2,20.8-22.9c10-3.3,20.2-3.2,30.1,0.4c10.1,3.6,16.3,10.8,19.4,21.7C828.5,358.1,823.9,359.4,819.3,360.6z"/>
	<path class="st0" d="M832.4,332.3c5.3,0,9.7,0.1,14-0.1c2.4-0.1,3.6,0.8,4.7,2.8c4.7,8.8,9.5,17.5,14.3,26.2
		c0.7,1.2,1.4,2.5,2.4,4.1c0.9-1.3,1.6-2.3,2.2-3.3c4.9-8.8,9.8-17.6,14.5-26.5c1.2-2.3,2.7-3.4,5.4-3.2c4.3,0.2,8.5,0.1,13.5,0.1
		c-1,2-1.6,3.4-2.3,4.7c-7.9,14.4-15.8,28.8-23.8,43.2c-1.3,2.3-2,4.7-1.9,7.4c0.1,5.9,0,11.8,0,17.9c-5.1,0-9.8,0-15,0
		c0-3.9-0.3-7.6,0.1-11.2c0.7-7.3-1.4-13.7-5.1-20c-7.1-12.2-13.7-24.7-20.5-37.1C834.1,335.8,833.4,334.4,832.4,332.3z"/>
	<path class="st0" d="M634.8,17.8c-8,0-15.5,0-23.5,0c-0.3,4.9-0.1,9.6-0.1,14.3c0,4.9,0,9.8,0,14.7c0,4.8,0,9.5,0,14.3
		c0,4.7,0,9.5,0,14.5c-5.2,0-10,0-15.1,0c0-19.1,0-38.1,0-57.6c-4.2,0-8-0.1-11.8-0.1c-3.7,0-7.5,0-11.7,0c-0.6-5-0.2-9.8-0.3-15
		c20.9,0,41.6,0,62.6,0C634.8,7.6,634.8,12.5,634.8,17.8z"/>
</g>
</svg>
