<svg xmlns="http://www.w3.org/2000/svg" data-name="Layer 1" viewBox="0 0 689.1 768">
  <path d="M0 383.21C0 267.29.04 151.37-.04 35.46c-.01-14.47 4.87-26.03 18.3-32.6C29.47-2.61 40.03.43 50.23 6.36c26.21 15.24 52.48 30.35 78.74 45.51 108.35 62.54 216.69 125.07 325.04 187.6 64.87 37.44 129.75 74.85 194.61 112.31 4.19 2.42 8.39 4.87 12.27 7.73 15.84 11.7 17.37 34.8 1.93 46.77-11.39 8.83-24.4 15.64-36.94 22.91-64.36 37.29-128.81 74.45-193.23 111.63-116.95 67.51-233.91 135-350.86 202.5-10.59 6.11-21.48 11.77-31.67 18.49-23.93 15.77-50.54-.34-50.23-29.33.45-43.14.11-86.29.11-129.44V383.21Z"/>
</svg>
