<svg xmlns="http://www.w3.org/2000/svg" xml:space="preserve" viewBox="0 0 448.3 448.3">
  <path d="M290.8 347.3c-49.5-24.8-98.8-49.4-148-74C110.3 313 55.4 313 23 280.2c-31-31.4-30.6-82.4 1-113.3 32.2-31.6 86.1-31.7 118.9 7.9 49.3-24.6 98.6-49.3 147.9-74-11.9-45.8 16.8-86 53.6-97.3 37.4-11.4 77.9 5.8 95.4 41 17.5 35.3 6.7 78.1-25.7 101-32.2 22.8-79.1 19.8-108.9-16.1-49.3 24.6-98.6 49.3-148.2 74.2 3.9 13.7 4 27.2-.1 41.2 49.4 24.7 98.7 49.4 148.4 74.2 16.5-19.8 37.5-30.7 63.4-30.7 19.4-.1 36.6 6.5 51.4 18.9 29.3 24.6 36.8 67.2 17.8 100.7-18.9 33.4-59.4 48.4-95.8 35.9-33.2-11.5-62.2-48.1-51.3-96.5z"/>
</svg>
