<svg xmlns="http://www.w3.org/2000/svg" class="transition-[fill] duration-200 ease fill-dark" viewBox="0 0 477.36 141.96">
  <g class="chars">
    <path d="M59.68 396.44h38.44V406c-1.57.11-3.17 0-4.77 0h-24v8.79c4.77.06 9.57 0 14.37 0h14.4v9.58c-1.87.15-3.78.05-5.68.07s-3.86 0-5.79 0H69.36v8.76h28.78v9.52H59.68Z" data-svg-origin="59.68000030517578 396.44000244140625" style="transform-origin:0 0" transform="translate(-59.68 -350.48)"/>
    <path d="M129.54 442.78h-9.61c0-.5-.07-1-.07-1.57V430.4a5.69 5.69 0 0 0-.8-3Q111 412.74 103 398.06c-.26-.47-.51-.95-.85-1.6.59 0 1-.11 1.35-.11h8.22a1.94 1.94 0 0 1 2 1.19c3.34 6.15 6.73 12.27 10.11 18.4.24.44.49.88.86 1.52.35-.59.64-1 .9-1.5 3.35-6.09 6.72-12.16 10-18.27a2.14 2.14 0 0 1 2.22-1.34c3 .07 6.09 0 9.16 0 .2.71-.24 1.12-.49 1.58q-8.08 14.73-16.2 29.46a5.86 5.86 0 0 0-.76 3v10.65Z" data-svg-origin="102.1500015258789 396.3376159667969" style="transform-origin:0 0" transform="translate(-59.68 -350.48)"/>
    <path d="M160.89 433.21h28.6a43.31 43.31 0 0 1 .12 9.57h-38.33v-46.35h38.47c.11 3.14 0 6.26 0 9.57h-28.87v8.81h28.81v9.67h-28.8Z" data-svg-origin="151.27999877929688 396.42999267578125" style="transform-origin:0 0" transform="translate(-59.68 -350.48)"/>
    <path d="m239.82 409.48-9.31 2c-1.16-3.39-4-4.41-7.07-5a31.2 31.2 0 0 0-13.29.47 10 10 0 0 0-2.9 1.28 2.48 2.48 0 0 0 0 4.38 13 13 0 0 0 6.2 1.89c2 .2 4 .26 6.08.31a32.71 32.71 0 0 1 11.19 1.87 19.79 19.79 0 0 1 4.54 2.42 12.07 12.07 0 0 1 0 19.49 19.31 19.31 0 0 1-8 3.43 40.57 40.57 0 0 1-18.69-.4 18.32 18.32 0 0 1-7.1-3.7 13.93 13.93 0 0 1-4.69-8.13l9.2-2c1.54 3.91 4.93 4.74 8.4 5.17a31.65 31.65 0 0 0 11.35-.52 15.1 15.1 0 0 0 3-1.1 2.66 2.66 0 0 0 0-5 12.91 12.91 0 0 0-3.13-1.13 43.22 43.22 0 0 0-5.88-.68 51.63 51.63 0 0 1-11.63-1.21 19.23 19.23 0 0 1-7.23-3.43 12.05 12.05 0 0 1-.26-18.74 18.1 18.1 0 0 1 7.9-3.73 40.44 40.44 0 0 1 18.85.05 18.92 18.92 0 0 1 7.33 3.57 14.46 14.46 0 0 1 5.14 8.44Z" data-svg-origin="196.25477600097656 396.33123779296875" style="transform-origin:0 0" transform="translate(-59.68 -350.48)"/>
    <path d="M297.79 420.19c.79 1 1.49 1.82 2.21 2.66s1.33 1.52 2.1 2.39c1.86-2.8 1.77-6 2.6-9.13 3.11-.06 6.27 0 9.49 0-.6 5.78-2 11.11-5.59 15.67 1.81 2 4.3 2.67 6.46 4.18l-5.72 8.52a33.49 33.49 0 0 1-8.61-5.46 29.35 29.35 0 0 1-9 3.4 22.94 22.94 0 0 1-12.74-.78 17.91 17.91 0 0 1-4.12-2.25 11.42 11.42 0 0 1-4-13.17 16.74 16.74 0 0 1 8.69-10.1c.76-.39 1.55-.73 2.38-1.11-.11-.77-.23-1.51-.33-2.25a14.33 14.33 0 0 1 15.69-16.24 14.68 14.68 0 0 1 3.55.76c5.3 2 7.48 6.45 6.22 11.8a15.64 15.64 0 0 1-7.48 10.12c-.59.29-1.08.58-1.8.99ZM294 432.12l-1-1.24-5.65-6.78c-.36-.43-.69-1-1.36-.71a20.52 20.52 0 0 0-3.91 1.63c-2.82 1.85-2.69 5.05.18 6.77a10.41 10.41 0 0 0 5.08 1.41 15.2 15.2 0 0 0 6.66-1.08Zm-1.83-19.55c1.24-.53 2.41-1 3.53-1.53a3.56 3.56 0 0 0 1.76-2.37 1.59 1.59 0 0 0-.87-2 4.39 4.39 0 0 0-3.23-.48 2.45 2.45 0 0 0-2 2.18 6.6 6.6 0 0 0 .81 4.2Z" class="char" data-svg-origin="270.17010498046875 396.4414367675781" style="transform-origin:0 0" transform="translate(-59.68 -350.48)"/>
    <path d="M359.39 424.49v8.75h28.82v9.52h-38.35c-.29-1.06-.41-43.7-.13-46.18 1.08-.29 36-.4 38.3-.12a48.56 48.56 0 0 1 .12 9.55h-28.74v8.79h28.78v9.62c-1.88.13-3.79 0-5.69.06h-23.11Z" data-svg-origin="349.57122802734375 396.2977294921875" style="transform-origin:0 0" transform="translate(-59.68 -350.48)"/>
    <path d="M442.73 442.83h-10.59c-.8-1.66-1.6-3.35-2.43-5.08h-23.15c-.79 1.63-1.61 3.35-2.43 5.06h-10.57c.23-.58.39-1 .6-1.48q10.11-21.79 20.21-43.58a2 2 0 0 1 2.29-1.43 21.9 21.9 0 0 0 3.34 0 1.55 1.55 0 0 1 1.73 1.09c2.27 5 4.59 9.94 6.89 14.91L442 441.14c.23.5.43 1 .73 1.69Zm-17.57-14.9-7-15.22c-2.44 5.26-4.73 10.17-7.08 15.22Z" data-svg-origin="393.55999755859375 396.2867126464844" style="transform-origin:0 0" transform="translate(-59.68 -350.48)"/>
    <path d="M448.11 396.42c.55 0 1-.07 1.44-.07 7.46 0 14.93-.06 22.39 0a25.8 25.8 0 0 1 6 .72 13.88 13.88 0 0 1 10.63 10.61 20.51 20.51 0 0 1-.38 12 13.9 13.9 0 0 1-7.52 8.36l-1.33.63 9.82 14a8.67 8.67 0 0 1-1.11.16h-9.44a2 2 0 0 1-1.85-1c-2.62-3.8-5.28-7.57-7.92-11.35-.18-.25-.37-.49-.55-.73h-10.6v12.76a45.45 45.45 0 0 1-9.47.19c-.29-1.01-.41-43.7-.11-46.28Zm9.61 23.58c.42 0 .71.06 1 .06h14.29a13.42 13.42 0 0 0 2.26-.28 4.91 4.91 0 0 0 4-3.91 10.81 10.81 0 0 0 0-5.7 4.92 4.92 0 0 0-4.22-3.85 15.18 15.18 0 0 0-2.42-.26h-13.68c-.39 0-.77.08-1.19.12Z" data-svg-origin="447.935546875 396.3233337402344" style="transform-origin:0 0" transform="translate(-59.68 -350.48)"/>
    <path d="m536.66 409.48-9.33 2c-1.23-3.58-4.25-4.51-7.41-5a31.56 31.56 0 0 0-12.69.47 9.94 9.94 0 0 0-2 .69c-1.2.57-2.4 1.18-2.42 2.8s1.11 2.39 2.36 2.83a26.68 26.68 0 0 0 5.14 1.29 55.7 55.7 0 0 0 6.07.32 32.65 32.65 0 0 1 11 1.83 20.15 20.15 0 0 1 4.55 2.39 12.08 12.08 0 0 1-.12 19.76A19.34 19.34 0 0 1 524 442a40.41 40.41 0 0 1-18.84-.45 17.87 17.87 0 0 1-7.05-3.77 14 14 0 0 1-4.2-6.41c-.15-.47-.25-1-.41-1.59l9.1-2c.18.2.33.29.38.41a5.91 5.91 0 0 0 3.85 3.64 19.86 19.86 0 0 0 4.4 1.11 32.69 32.69 0 0 0 11.2-.52 16.7 16.7 0 0 0 3.12-1.15c2.35-1.1 2.28-3.82 0-5a13.65 13.65 0 0 0-4.92-1.47c-2.07-.21-4.15-.31-6.22-.39a43.56 43.56 0 0 1-9.65-1.18 19 19 0 0 1-7.09-3.37 12 12 0 0 1-.07-18.86 18.07 18.07 0 0 1 7.65-3.57 40.5 40.5 0 0 1 19 0 19.07 19.07 0 0 1 6.72 3.14 14.57 14.57 0 0 1 5.69 8.91Z" data-svg-origin="493.05615234375 396.29998779296875" style="transform-origin:0 0" transform="translate(-59.68 -350.48)"/>
  </g>
  <path d="M209.72 5.35h-8.35V.13h22.08a39 39 0 0 1 0 5.18h-8.26a29.27 29.27 0 0 0-.13 4.15v16.29h-5.34Zm50.16.06v4.75h15.92v5.43h-15.89v4.83h15.89v5.1c-1.05.33-19.16.44-21.2.12-.3-1.08-.38-23.72-.06-25.56h21.28v5.17c-5.35.21-10.64-.01-15.94.16Zm-44.56 110.71h21.29v5.29h-15.85c-.1 1.62-.06 3.11 0 4.78h15.9v5.45h-15.87v4.88h15.86v5.35h-21.33Zm34.63-90.43a6.35 6.35 0 0 1-.92.13h-4.27c-.18-1.74-.07-3.4-.09-5.05s0-3.32 0-5.07h-12.06c-.12 1.63 0 3.28-.05 4.93s0 3.32 0 5.09h-5.34V.1a48 48 0 0 1 5.25-.05v9.84c1.24.34 9.63.43 12.15.15V.1a50.2 50.2 0 0 1 5.34 0Z" class="the" style="opacity:1"/>
  <path d="M186.63 141.86h-5.94l-1.43-2.87h-12.69c-.35.71-.67 1.44-1.08 2.13-.19.31-.53.74-.82.75-1.75.07-3.5 0-5.44 0 .3-.73.49-1.24.72-1.73 3.52-7.59 7.06-15.16 10.54-22.76.46-1 1-1.54 2.15-1.39a14.73 14.73 0 0 0 2 0c3.99 8.63 7.93 17.12 11.99 25.87Zm-9.89-8.34-3.73-8.07c-1.2 1.75-3.56 7-3.66 8.07Zm20.84-1.84v-5.34h14.18c1.41 8.68-3.12 14.61-10.38 15.41a18 18 0 0 1-6-.27 11.15 11.15 0 0 1-9-9.7 18.89 18.89 0 0 1 0-5.91 11.07 11.07 0 0 1 9.36-9.52 16.27 16.27 0 0 1 9.13.71 10.11 10.11 0 0 1 5.44 4.8l-4.58 2.56c-2.57-3.32-6-3.33-9.57-2.6a5.47 5.47 0 0 0-4.35 4.57 11.49 11.49 0 0 0 0 5.28 5.58 5.58 0 0 0 4 4.36 10.73 10.73 0 0 0 6.88-.14 5.25 5.25 0 0 0 3.51-4.21Zm43.63-15.63a26.71 26.71 0 0 1 3.24 0 2.54 2.54 0 0 1 1.33.85c3.07 3.38 6.11 6.79 9.15 10.19 1.15 1.29 2.31 2.57 3.45 3.87a5.48 5.48 0 0 1 .52.92l.46-.27v-15.5h5.34v25.81a26.78 26.78 0 0 1-3.37 0 2.48 2.48 0 0 1-1.31-.9c-3.74-4.15-7.45-8.31-11.17-12.48l-2-2.21-.33.11v15.46h-5.2c-.29-1.22-.41-22.86-.11-25.85Zm52.11 8.59-5.05 1.4a4.17 4.17 0 0 1-.41-.7 5.52 5.52 0 0 0-4.2-3.59 11.9 11.9 0 0 0-5.44 0 5.71 5.71 0 0 0-4.63 5 11.85 11.85 0 0 0 .17 5.13 5.57 5.57 0 0 0 4 4.17 11 11 0 0 0 6.3 0 5.63 5.63 0 0 0 4-4.21l5.21 1.44a10.65 10.65 0 0 1-6.22 7.42 15.71 15.71 0 0 1-11.88.2 10.48 10.48 0 0 1-6.64-7.42 16.72 16.72 0 0 1-.16-8.43 11.15 11.15 0 0 1 10-8.86 17.15 17.15 0 0 1 7.53.58 10.93 10.93 0 0 1 7.42 7.87Zm-.39-8.58c2 0 3.81-.05 5.61 0 .36 0 .78.57 1 1 1.52 2.7 3 5.42 4.48 8.13.41.74.84 1.48 1.34 2.38.32-.47.56-.77.74-1.1 1.72-3.11 3.46-6.2 5.12-9.34a1.81 1.81 0 0 1 1.91-1.11c1.51.06 3 0 4.85 0-.34.66-.57 1.13-.83 1.58-2.8 5.12-5.59 10.23-8.42 15.33a4.46 4.46 0 0 0-.61 2.31v6.52h-5.28c-.05-.29-.11-.62-.15-1s0-.4 0-.6c0-2.08.33-4.26-.18-6.21s-1.87-3.68-2.87-5.51c-2-3.64-4-7.28-6-10.93-.21-.36-.41-.81-.71-1.45Z" class="agency" style="opacity:1"/>
</svg>
