<svg aria-hidden="true" data-frame-location="bottom" viewBox="0 0 1159.2 22.23" xmlns="http://www.w3.org/2000/svg">
  <path d="M226.39 20.12c-2.55-.71-7.28.18-7.1.54-3.46-.74-6.51.04-9.48-.65-11.51.39-24.82-.19-33.08 0-6.84.16-10.63.8-18.42-.1-4.09-.48-14.78-.24-11.49-1.12-12.6.31-24.47-.83-31.45-.49-4.17-.75-8.36-1.49-15.48-1.81-6.63-.02-8.63.51-14.45.59-17.68-1.23-43.71-1.24-65.15-1.92-.91-2.32-17.41-2.37-20.29-4.41 3.28-.47 4.6-.06 9.17-.07C8.62 9.25 21 9.33 24.71 8.4c5.67.02 10.46.16 14.87.37 5.55-.64 10.58-.31 12.39-1.05 9.28.73 32.39-.82 47.62-.36 4.67-.36 6.49-1.06 12.3-1.29 17.88.17 34.92.43 53.31.08 16.08-.3 32.66-1.16 49.04-1.32 57.65-.58 124.47-1.12 186.91-1.15 3.58 0 8.9-.35 12.7-.33 3.14.01 6.08.42 9.36.41 7.4-.02 14.79-.45 21.88-.4 3.32.02 6.21.41 9.37.41 55.63.05 115.15-1.62 177.22-2.28 15.6-.17 31.65-.08 47.6-.36C708.32.63 737.11-.06 765.15 0c44.68.11 94.66 1.32 127.51 1.7 9.64.11 19.29.15 29.51.26 20.38.22 38.01.47 60.74.27 16.88-.15 32.15-.25 49.65.11 24.76.51 43.63-.54 54.05 1.76 16.96-.34 37.08.56 53.64.8 9.15.13 11.38.34 18.82 1.06 2.25 3.45-33.1 2.5-42.05 4.64-23.46.12-43.23.89-61.55 2.14-2.78.15-.01.25 1.93.22-4.24.72-17.21.42-15.75 1.8-24.75.28-49.54 1.38-74.46 2-5.78.14-12.31-.04-18.3.14-2.28.07-6.55.51-8.97.55-16.3.27-42.07-.43-54.83.65-9.55.8-60.37.4-86.06.64-20.74.19-40.59.58-60.35.69-15.36.08-31.33-.19-43.84.57-12.81-.62-41.72-.21-55.14-.07-2.87.03-4.85.53-7.1.53-2.21 0-7.67-.39-9.37-.41-16.03-.19-33.46.27-49.45.37-25.77.16-54.41.21-78.52 1.06-53.43-.38-110.66.2-165.04.75-6.76-.98-19.9-.42-31.45-.49-23.53-.14-47.84-1.67-77.65-1.11 1.25-.23 3.18-.39 5.3-.52Z" fill-rule="evenodd"/>
</svg>
