<svg class="c-animated-frame_stroke" aria-hidden="true" data-frame-location="top" viewBox="0 0 1159.2 33.35" xmlns="http://www.w3.org/2000/svg">
  <path d="M226.39 30.18c-2.55-1.06-7.28.27-7.1.8-3.46-1.11-6.51.05-9.48-.98-11.51.59-24.82-.28-33.08 0-6.84.24-10.63 1.21-18.42-.16-4.09-.72-14.78-.37-11.49-1.67-12.6.46-24.47-1.24-31.45-.73-4.17-1.12-8.36-2.24-15.48-2.71-6.63-.02-8.63.76-14.45.88-17.68-1.85-43.71-1.86-65.15-2.88-.91-3.48-17.41-3.54-20.29-6.61 3.28-.71 4.6-.09 9.17-.1C8.62 13.88 21 14 24.71 12.6c5.67.02 10.46.25 14.87.55 5.55-.96 10.58-.47 12.39-1.58 9.28 1.1 32.39-1.24 47.62-.53 4.67-.55 6.49-1.59 12.3-1.94 17.88.25 34.92.64 53.31.12 16.08-.45 32.66-1.74 49.04-1.99 57.65-.86 124.47-1.68 186.91-1.73 3.58 0 8.9-.52 12.7-.5 3.14.02 6.08.63 9.36.61 7.4-.02 14.79-.67 21.88-.6 3.32.03 6.21.61 9.37.61 55.63.08 115.15-2.43 177.22-3.42 15.6-.25 31.65-.12 47.6-.53C708.32.94 737.11-.09 765.15 0c44.68.16 94.66 1.99 127.51 2.55 9.64.16 19.29.23 29.51.39 20.38.33 38.01.7 60.74.4 16.88-.22 32.15-.37 49.65.17 24.76.76 43.63-.81 54.05 2.64 16.96-.51 37.08.84 53.64 1.2 9.15.2 11.38.51 18.82 1.59 2.25 5.17-33.1 3.76-42.05 6.95-23.46.18-43.23 1.34-61.55 3.22-2.78.22-.01.38 1.93.33-4.24 1.08-17.21.63-15.75 2.7-24.75.42-49.54 2.07-74.46 2.99-5.78.22-12.31-.05-18.3.2-2.28.1-6.55.76-8.97.82-16.3.41-42.07-.64-54.83.98-9.55 1.21-60.37.6-86.06.96-20.74.28-40.59.87-60.35 1.03-15.36.12-31.33-.29-43.84.85-12.81-.92-41.72-.32-55.14-.11-2.87.05-4.85.79-7.1.8-2.21 0-7.67-.59-9.37-.61-16.03-.28-33.46.4-49.45.55-25.77.23-54.41.31-78.52 1.59-53.43-.56-110.66.3-165.04 1.12-6.76-1.47-19.9-.63-31.45-.73-23.53-.22-47.84-2.51-77.65-1.66 1.25-.35 3.18-.58 5.3-.78Z"/>
</svg>
