<svg class="c-animated-frame_stroke" aria-hidden="true" data-frame-location="left" viewBox="0 0 23.75 1159.2" xmlns="http://www.w3.org/2000/svg">
  <path d="M19.84 930.74c.19-5.01 1.3-14.59 1.23-18.86-.21-12.31.32-26.55.35-40.48.02-9.6.55-13.68.91-20.66.28-5.32-.32-11.12-.29-16.39.06-11.06.72-22.33.9-33.69 1.49-100.62.4-192.03.64-282.63-.31-4.24-1.29-6.12-1.13-11.98 1.85-15.09.53-32.79.33-53.49-.34-36.8.33-80.43-.19-115.57-.06-4-.67-7.96-.77-11.8-.46-17.39.42-35.4-1.22-49.43.59-28.19.53-58.05-1.08-81.89 1.48-8.01.36-16.91.28-24.25-.09-7.9.32-12 .15-19.43-.77-35.7-.33-68.55-1.37-98.33.69-3.82 1.03-9.62.75-14.23-2.13-3.15-4.13-6.75-3.87-18.33-1.62-2.54-1.93-3.07-3.13-4.93C13.55 6.46 11.78 1.06 9.82 0c-.6 18.71-.4 40.84-3.95 53.17-.39 4.76.21 6.04.1 9.82C1.78 85.14.31 123.59 0 150.86c1.56 20.28.55 39 .52 62.07 1.94 8.1.5 19.48.3 29.44-.15 7.79.71 18.59.71 28.02 0 12.95-.83 21.03.66 29.62-.67 4.34-.12 5.03-.66 11.05.42 3.73.71 7.88.78 11.8.54 30.38-.31 64.45 1.23 90.1-.55 1.8-.55 6.77-.66 11.03.62 11.76.38 23.9.58 32.84.16 7.12-.5 12.12-.51 19.22-.02 9.15.64 19.02.7 28.04.26 35.46.27 76.44.25 99.35-.02 27.11.3 52.05.1 78.11-.17 22.03.42 38.04.29 57.07-.06 10.07-.71 20.25-.81 30.46-.16 15.86 1.22 32.11-.25 50.29.23 4.49.56 8.63.73 13.39-.74 50.31.43 99.23-1.41 161.88-.11 5.69 1.27-2.77 1.03 2.18.46 16.39-.61 29.8-.48 45.29.03 3 .56-.54.67 1.97.24 5.41-.23 14.14.56 19.82.53 3.84 1.86 1.47 1.62 7.37-.36 6.1.42 8.17-.03 14.61 2.05 4.64 1.3 13.67 1.55 23.6.16 6.6 1.06 14.84 1.23 21.82.27 11.21-.71 19.88 0 27.63.84 1.12.85-2.5 1.83-.65 2.01-13.18 3.16-27.95 3.13-35.72-.04-9.89 1.78-20.37 1.29-35.1.13-4.48.88 4.35.8-2.81.19-3.08-.4-3.44-.59-5.2 1.91.33 1.92-23.26 1.09-27.06-.11 1.85-.06 4.59-.49 4.63.18-5.07.32-24.86 1.21-31.88.47 5.81-.9 10.57-.07 16.23.7-15.1 1.44-25.65 1.34-36.68-1.17-.93-.42 13.07-1.54 17.03.12-10.23.9-25.04.81-30.44.52-3.75 1.38 4.68 1.51-2.46.88-21.01.15-39.87.82-58.1Zm-1.63 47.91c.08 7.02-.14-12.64 0 0Zm.92-48.31c1.04 1.64-.43 3.25-.17 6.44-.88-.72.04-5.51.17-6.44Zm-.82 17.45c.08-3.19.17-6.4.26-9.61.52.59 1.16 11.24-.26 9.61Zm-2.68 114.04c.79.62-.03 6.88.11 9.82-.79-.63.03-6.9-.11-9.82Z" fill-rule="evenodd"/>
</svg>
