<svg xmlns="http://www.w3.org/2000/svg" aria-hidden="true" class="FaceLogo" viewBox="0 0 458.97 631.69">
  <path d="M432.87 505.33c.24 1.76-.18 3.12-.68 4.5-.29.81-.3 1.72-.58 2.53-.68 2-1.43 3.97-2.17 5.94-.08.22-.23.42-.38.6-2.79 3.5-5.88 6.74-9.24 9.64-3.27 2.82-6.52 5.7-10.27 7.94-2.43 1.45-4.78 3.02-7.31 4.32-1.75.9-3.34 2.12-5.11 2.99-1.39.69-2.81 1.47-4.46 1.41-1.4-.05-2.62.48-3.92.91-3.27 1.08-6.28 2.81-9.59 3.75-1.43.41-2.84.89-4.25 1.35-1.53.49-1.59.63-1.19 2 .13.45.26.92.27 1.39.04 1.41-.04 2.83.03 4.24.08 1.72-.22 3.35-.81 4.95-.45 1.21-.36 2.52-.59 3.76-.4 2.19-1.23 4.32-1.14 6.61.03.65-.43 1.32-.67 1.98-.08.22-.32.45-.28.64.42 2.26-.64 4.26-1.24 6.29-.57 1.94-1.38 3.84-2 5.75-.5 1.53-1.6 3-1.29 4.78.03.19-.19.42-.29.63-1.06 2.36-1.99 4.79-3.23 7.05-1.03 1.88-2.47 3.52-3.64 5.32-1.45 2.23-3.32 4.13-4.95 6.21-1.84 2.34-3.56 4.79-5.45 7.07-1.7 2.04-3.53 4.07-6.06 5.26-.85.4-1.54 1.15-2.32 1.72-2.37 1.76-5.36 2.22-7.84 3.75-1.64-.13-3.14.38-4.63.97-.36.14-.87.14-1.23-.01-2.23-.92-4.54-.35-6.82-.47-1.58-.08-3.16.05-4.74-.03-1.69-.09-3.37-.37-5.07-.46-1.66-.08-3.46.38-4.96-.11-2.32-.76-4.74-1.07-7.07-1.8-2.9-.91-5.83-1.86-8.73-2.76-2.33-.72-4.59-1.95-6.85-3.03-3.24-1.55-6.15-3.76-9.64-4.82-1.58-1.68-3.99-1.89-5.77-3.21-.13-.1-.3-.29-.4-.25-1.67.56-2.84-.94-4.38-1.09-.85-.08-1.67-.83-2.42-1.39-2.98-2.23-5.88-4.55-8.66-7.05-2.68-2.41-5.69-4.44-8.54-6.65-.33-.25-.6-.57-.89-.87-2.04-2.12-4.29-3.96-6.65-5.72-2.03-1.51-3.83-3.34-5.66-5.1-5.02-4.81-10.16-9.5-14.94-14.54-3.01-3.17-6.22-6.21-8.61-9.95-.48-.75-1.17-1.52-1.95-1.91-2.18-1.09-3.74-2.84-5.41-4.5-1.01-.99-2.03-1.97-3-3.01-1.85-1.98-3.6-4.06-5.51-5.96-2.15-2.14-4.47-4.12-6.67-6.22-2.41-2.3-4.34-4.98-6.28-7.68-1.61-2.23-3.53-4.24-5.27-6.37-1.22-1.5-2.44-3-3.54-4.58-1.63-2.34-3.16-4.75-4.71-7.14-.81-1.26-1.66-2.5-2.34-3.84-.67-1.32-1.88-2.38-2.02-3.97-1.49-1.42-1.98-3.42-2.98-5.13-1.5-2.56-2.68-5.31-4-7.98.66-1.41-.99-2.07-1.08-3.34-.08-1.09-.96-2.1-1.41-3.18-.67-1.58-1.25-3.2-1.92-4.78-.75-1.77-1.14-3.74-1.61-5.65-.49-1.97-1.21-3.88-1.81-5.83-.09-.3-.14-.62-.15-.94-.04-1.04-.12-2.03-.46-3.08-.78-2.4-.64-5-1.48-7.45-.43-1.27-.09-2.8-.06-4.22.04-2.03-.28-3.98-.92-5.92-.35-1.04-.21-2.18-.51-3.3-.48-1.77-.22-3.72-.61-5.53-.67-3.1-.34-6.21-.48-9.32-.03-.61-.27-1.23-.49-1.81-.61-1.65-.42-3.36-.5-5.06-.12-2.69-.29-5.38-.52-8.06-.04-.42-.47-.81-.62-1.06-1.63.32-3.11.53-4.56.91-3.58.92-7.22.93-10.87 1.03-2.72.08-5.24-.62-7.81-1.22-2.91-.67-5.81-1.48-8.61-2.42s-5.46-2.4-7.22-5.23c-1.22-1.97-2.12-4.01-3.01-6.11-.41-.98-.16-1.99-.63-3.02-.57-1.25-.42-2.83-.58-4.27-.04-.32.06-.72-.09-.96-1.2-1.93-.89-4.07-.92-6.16-.01-1.16 0-2.33 0-3.5.03-2.33-.27-4.72 1-6.88-.4-1.55.78-2.72 1.01-4.12.22-1.32.77-2.53 1.3-3.77.42-.99.77-2.07 1.05-3.1.28-1.03.32-2.22.66-3.26.67-2.03.38-4.26 1.41-6.23.31-.59.06-1.47.06-2.22 0-1.5.1-3-.03-4.49-.13-1.5-.48-2.98-.74-4.47-.05-.31-.22-.6-.22-.91-.04-1.85.21-3.75-1.01-5.38.48-1.42-.83-2.36-.98-3.6-.17-1.31-.92-2.34-1.52-3.44-.87-1.6-1.88-3.11-2.96-4.59-1.59-2.16-3-4.46-4.43-6.74-1.84-2.94-3.85-5.81-5.32-8.94-.77-1.64-1.73-3.38-1.76-5.34 0-.31-.03-.7-.21-.92-.8-.95-.49-2.21-.89-3.17-.45-1.08-.35-2.08-.38-3.11-.06-2.16-.06-4.33 0-6.49.05-2.36.78-4.68.48-7.06.88-1.74 1.01-3.82 2.38-5.33 1.82-2.01 3.51-4.15 5.52-5.95 3.14-2.82 6.06-5.95 9.69-8.12 1.56-.93 3.11-2.04 5.08-2.41 1.31-.24 2.82-.75 3.92-1.45 1.62-1.04 3.69-.46 5.13-1.81.22-.21.79-.06 1.2-.06 1.75 0 3.5-.01 5.24 0 1.16 0 2.55-.38 3.43.12 1.98 1.13 4.28 1.79 5.85 3.63.44.52.81 1.3 1.89 1.22.04-.72.22-1.47.08-2.15-.63-3.18-.6-5.7-.02-8.64.31-1.58.49-3.2.51-4.8.02-1.71.31-3.33.8-4.96.23-.76.26-1.62.21-2.42-.07-1.23-.05-2.53.56-3.53.68-1.11.17-2.25.57-3.3.4-1.03.66-2.1.95-3.16.57-2.06.12-4.33 1.33-6.26.23-.36.16-.98.08-1.46-.14-.94.25-1.72.56-2.55.74-1.98 1.36-4 1.97-6.02.94-3.15 1.67-6.41 3.07-9.35 1.58-3.33 3.13-6.7 5.09-9.86 1.06-1.71 1.94-3.57 2.84-5.4 1.39-2.84 3.08-5.49 5.05-8.03 2.93-3.78 6.58-6.93 9.19-10.98 1.05-1.63 2.54-2.98 3.86-4.42 2.78-3.04 5.99-5.66 8.52-8.97 2.09-2.73 5-4.65 7.92-6.35 2.26-1.32 4.81-2.24 7.45-2.73.24-.04.59.02.69-.12.98-1.28 2.78-.66 3.87-1.72.23-.22.77-.14 1.17-.15 1.16-.02 2.33.06 3.49-.03 1.11-.08 2.28-.14 3.31-.51 2.34-.85 5-.06 7.22-1.47.17-.11.49-.02.74 0 3.13.32 6.19-.55 9.31-.55 1.4 0 2.79-.52 4.19-.8.31-.06.63-.14.94-.14 2.58-.01 5.16-.04 7.74.02.77.02 1.54.34 2.31.47.7.11 1.48-.24 2.1.42.12.13.47.08.71.08 2.43-.06 4.76.54 7.14.92 2.27.37 4.65.09 6.98.08 1.86-.01 3.62.46 5.39.96.98.28 1.95.84 3.06.55.22-.06.5-.02.71.07 3.05 1.2 6.1 2.41 9.21 3.47 2.12.73 4.02 2.11 6.01 3.21 2.23 1.24 4.19 2.84 5.78 4.81 2.04 2.52 4.49 4.78 5.28 8.15.21.88.9 1.65 1.38 2.47 1.57 2.67 2.93 5.4 3.01 8.62.03 1.17.41 2.34.65 3.5.13.62.3 1.23.5 2.02.81.22 1.92.04 2.77.78.79.68 2.19.04 2.77 1.23 1.8.04 3.26 1.11 4.91 1.61 4.15 1.28 8.12 2.95 11.69 5.46.91.64 1.96 1.11 2.74 1.87 1.51 1.48 3.3 2.52 5.05 3.64.55.35 1.05.82 1.45 1.33 2.48 3.16 4.99 6.3 7.37 9.53 1.12 1.52 2.19 3.13 2.94 4.85 1.45 3.33 3.64 6.24 5.16 9.53.79 1.71 1.84 3.32 1.89 5.29 1.27 1.12.76 2.86 1.46 4.22.67 1.3.96 2.81 1.35 4.25.29 1.07.45 2.16.69 3.24.1.46.32.89.4 1.36.19 1.09.77 2.1.62 3.27-.05.36.22.75.31 1.13.27 1.16.81 2.23.71 3.5-.06.75.31 1.54.45 2.32.45 2.36 1.02 4.7 1.01 7.13 0 .3.11.63.23.91.57 1.35.89 2.73.77 4.21-.03.39-.02.87.17 1.18.93 1.47.75 3.09.83 4.7.08 1.53.05 3.14.57 4.53.37.99.43 1.9.39 2.84-.11 2.71.72 5.34.56 8.07-.16 2.74-.07 5.49-.01 8.24.02.86.33 1.71.47 2.56.13.79-.21 1.61.39 2.38.25.31.11.95.11 1.43 0 3.08.31 6.2-.08 9.23-.45 3.53-.35 7.05-.41 10.57-.02.97-.7 1.77-.54 2.82.13.85-.21 1.73-.35 2.58-.32 1.94-.05 3.98-.13 5.97-.06 1.36-.31 2.71-.48 4.06-.16 1.35-.1 2.79-.56 4.04-.34.94-1.01 1.75-1.07 2.83-.03.55-.35 1.09-.33 1.62.11 3.01-1.01 5.79-1.51 8.69-.95.73-.24 1.88-.69 2.75-.4.76-1.05 1.46-.82 2.44-1.09 1.56-.85 3.5-1.47 5.21-.62 1.69-1.43 3.38-1.76 5.07-.43 2.17-1.61 4.22-1.28 6.55.15 1.05.07 2.14-.5 3.05-.72 1.13-.5 2.46-.88 3.67-.58 1.87-1.24 3.71-1.83 5.57-.42 1.34-.58 2.74-1.21 4.06-.47.98.45 2.42 1.77 2.32 1.44-.11 2.09 1.09 3.35 1.21 1.1.1 2.12.94 3.2 1.4 3.11 1.31 6.2 2.6 9.62 3.07 1.74.24 3.43 1.06 5.08 1.79 1.5.66 2.92 1.53 4.36 2.34.95.54 2.09.46 2.53-.48.83-1.76 1.95-3.37 2.14-5.45.12-1.36.99-2.63 1.31-3.99.41-1.77 1.26-3.45 1.13-5.34-.02-.24-.05-.56.07-.71 1.25-1.47.83-3.24.94-4.92.06-.94.1-1.99.52-2.78.55-1.03.37-2.05.48-3.09.11-1.11.32-2.21.49-3.31.35-2.37 1.01-4.7.98-7.13 1.3-2 .72-4.51 1.81-6.59.28-.53.22-1.28.2-1.92-.06-1.95.32-3.82.91-5.66.14-.45.14-.98.09-1.46-.35-3.79.61-7.53.51-11.31 1.61-6.64.79-13.4 1.02-20.11.03-.94.13-1.96.51-2.79.48-1.03.45-2.04.47-3.09 0-.41-.13-.95.07-1.2 1.19-1.41.63-3.13.98-4.66.58-2.53.03-5.11.52-7.55.61-3.04.31-6.05.4-9.07.09-3.08-.06-6.16.04-9.24.08-2.55.45-5.11 1.17-7.56.49-1.65.26-3.26.18-4.87-.02-.49-.49-.89 0-1.48.21-.26.11-.79.11-1.19 0-4.08.08-8.16-.03-12.23-.04-1.49-.52-2.97-.78-4.45-.08-.47-.15-.95-.16-1.43-.02-1.91.05-3.83-.05-5.74-.06-1.18-.09-2.52-.64-3.49-.79-1.38-.74-2.76-.84-4.2-.08-1.27-.19-2.59-.63-3.76-.24-.65-.34-1.24-.33-1.87.03-2.11-.11-4.18-.99-6.14-.03-.07-.04-.16-.03-.23.19-1.89-.28-3.71-.45-5.57-.17-1.82-.37-3.74.04-5.47.67-2.87.33-5.72.4-8.58.06-2.26.06-4.5.99-6.64.18-.42.04-.99.04-1.49 0-2.08-.13-4.17.04-6.24.13-1.59-.31-3.08-.64-4.55-.17-.77-.4-1.54-.4-2.33.01-1.62-.49-3.14-.86-4.69-.11-.46-.09-.96-.15-1.44-.09-.71.24-1.49-.39-2.13-.13-.14-.18-.5-.1-.69 1.01-2.3.22-4.73.51-7.07.3-2.48-.56-4.86-.54-7.31 0-.67-.36-1.35-.59-2.02-.08-.22-.41-.44-.37-.6.55-2.35-1.18-4.34-1.02-6.63.1-1.41-.09-2.84.03-4.24.26-3.3-.29-6.56-.59-9.81-.26-2.88-.94-5.72-.92-8.64-.99-1.86-.66-4.05-1.43-5.98-.17-.43-.06-.97-.07-1.47 0-1.41.35-2.95-.09-4.21-.49-1.4-.04-2.81-.47-4.07-.45-1.29-.41-2.63-.86-3.93-.43-1.26-.1-2.8-.08-4.21.02-1.7-.44-3.32-.84-4.94-.27-1.07-.49-2.16-.63-3.26-.09-.72-.27-1.38-.48-2.08-.65-2.1-.37-4.43-1.53-6.44-.18-.31-.02-.82 0-1.23.03-1.06-.01-2.08-.49-3.07-.73-1.53-.46-3.29-1.01-4.87-.68-1.92-1.09-3.93-1.64-5.89-.5-1.8-1.53-3.51-1.37-5.5.05-.65-.22-1.22-.45-1.84-.52-1.39-.73-2.9-1.04-4.36-.29-1.39-1.2-2.6-1.03-4.13.04-.41-.3-.87-.48-1.31-.15-.36-.5-.74-.45-1.06.19-1.18-.28-2.24-.55-3.31-.51-2.02-.48-4.13-1.01-6.13-.72-2.71-1.02-5.59-2.82-7.93-.07-1.44-1.42-2.5-1.19-4.07.07-.48-.19-1.13-.51-1.53-1.89-2.4-3.22-5.26-5.66-7.23l-6.21-5.04c-2.78-2.26-5.87-4.1-9.06-5.61-2.59-1.23-5.2-2.81-8.36-2.42-1.31.16-2.66.09-3.99 0-1.03-.06-2.04-.3-3.06-.48-.94-.17-1.99.41-2.85-.42-.14-.13-.47-.07-.71-.07-3.99 0-7.99-.03-11.98.01-.86.01-1.7.35-2.56.46-.79.1-1.55.21-2.34.44-1.22.36-2.64.1-3.97.07-2.19-.05-4.34.13-6.41.94-.43.17-.98.06-1.47.06-1.7-.01-3.31.43-4.93.88-.76.21-1.56.32-2.36.39-1.21.12-2.49-.02-3.64.3-1.05.29-1.99.95-3.15.93-.73-.01-1.37.13-2.09.44-.98.42-2.11.67-3.28.6-.92-.06-1.87.32-2.82.44-.95.13-2-.3-2.81.53-1.83 0-3.67.1-5.49-.06-.98-.09-2.12-.41-2.82-1.04-1.09-.99-2.06-2.22-2.28-3.8-.05-.41 0-.83 0-1.03.99-2.25 3.38-2.24 4.9-3.51 1.51.22 2.76-.64 4.14-.96 2.07-.49 4.17-.8 6.22-1.44 1.25-.4 2.69-.07 4.04-.53 2.04-.69 4.29-.5 6.35-1.09 1.46-.42 2.88-.36 4.32-.47.7-.05 1.37-.38 2.08-.47 2.3-.3 4.61-.63 6.86-1.08 6.27-1.25 12.58-.81 18.88-.91 1.83-.03 3.66 0 5.49 0 2.18-.01 4.28.38 6.4.92 1.13.29 2.37.37 3.56.51 2.85.34 5.61.86 8.31 1.9 1.15.44 2.56.17 3.58 1.13 1.87-.35 2.85 1.71 4.6 1.68 1.51 1.31 3.46 1.81 5.16 2.79 2.38 1.38 4.48 3.1 6.52 4.9 1.18 1.05 2.21 2.26 3.37 3.33 2.22 2.05 3.76 4.55 5.22 7.16 1 1.8 2.28 3.46 3.56 5.09 1.59 2.03 2.71 4.25 3.2 6.77.2 1.02.79 1.86 1.1 2.85.54 1.72.85 3.51 1.5 5.2.25.66.44 1.35.55 2.04.3 1.95 1.24 3.75 1.36 5.75.01.24 0 .52.13.7.67.96.56 2.2.97 3.13.74 1.68 1.07 3.45 1.69 5.14.72 1.98 1.1 4.09 1.72 6.11.39 1.27.79 2.56 1.31 3.76.71 1.62.8 3.37 1.43 4.97.65 1.62.73 3.26.76 4.97.02 1.27.06 2.67.6 3.75.5 1.01.35 1.94.33 2.87-.03 1.72.37 3.33.81 4.96.33 1.22.51 2.48.72 3.73.38 2.28 1.18 4.5 1.04 6.88-.04.76.13 1.64.5 2.29.59 1.01.43 2.04.46 3.08.03 1.45-.04 2.89.48 4.32.93 2.53.42 5.19.52 7.8.04 1.05.14 1.95.75 2.98.8 1.36.92 3.14 1.25 4.76.2.97.06 1.99-.55 2.77-.54.69-.62 1.42-.31 2.07 1.41 2.95 1.44 6.08 1.37 9.24-.06 2.62.84 5.17.5 7.81.68 1.12.47 2.36.5 3.56 0 .25-.1.59.02.73 1.34 1.55.8 3.7 1.76 5.36.53.92-.17 2.15.74 2.98.16 2.77.37 5.54.46 8.31.03.85-.37 1.7-.45 2.56-.08.91-.08 1.84 0 2.74.07.78.16 1.63.52 2.3.54 1.01.49 2.04.45 3.08-.07 1.96.16 3.84.9 5.67.17.43.1.96.1 1.45 0 2.66.01 5.33 0 7.99 0 1.69.14 3.39-.81 4.95-.23.37-.18.94-.18 1.42-.01 4.08-.05 8.16.02 12.23.02 1.27.37 2.54.46 3.81.08 1.24-.29 2.6.09 3.72.67 1.96.32 3.89.41 5.83.06 1.13-.03 2.25.68 3.27.25.36.3.9.32 1.36.04 1.16 0 2.33.02 3.49 0 .97-.02 1.89.47 2.83.52.99.57 2.14.55 3.29-.05 3.28.67 6.51.51 9.81-.16 3.24-.05 6.49-.03 9.74.01 2.37-.71 4.66-.55 7.07.09 1.38.39 2.71.53 4.06.13 1.28-.02 2.56-.43 3.83-.39 1.21.03 2.5-.42 3.84-.42 1.25-.51 2.9.23 4.33.2.4.13.95.14 1.44 0 4.24.26 8.51-.08 12.73-.25 3.11-.08 6.25-.52 9.3-.29 1.99-.02 4.19-1.26 6.01-.12.18-.13.47-.11.7.31 3.29-.7 6.51-.56 9.81.08 1.84-.36 3.7-.44 5.56-.08 1.91.03 3.83-.04 5.74-.03.78-.17 1.61-.5 2.3-.6 1.25-.41 2.54-.48 3.83-.14 2.52-.14 5.07-.54 7.56-.39 2.37-.97 4.7-.97 7.14 0 .83-.41 1.67-.62 2.5-.13.54-.42 1.12-.32 1.62.3 1.6-.28 3.09-.62 4.54-.22.96-.4 1.88-.4 2.84 0 2.18-.47 4.28-.9 6.4-.3 1.47-.34 3.03-.57 4.55-.17 1.1-.05 2.2-.48 3.33-.55 1.42-.65 2.98-.58 4.55.03.6-.41 1.2-.45 1.81-.07 1.37-.85 2.64-.53 4.06.05.22 0 .51-.11.69-1.26 2.04-1.26 4.52-2.34 6.64-.59 1.16-.92 2.49-1.49 3.66-.62 1.25-1.04 2.66-2.1 3.68-1.02.98-1.96 2.04-3.02 2.99-1.22 1.1-2.73 1.61-4.36 1.63-1.25.02-2.39.16-3.36 1.07-.31.29-.86.42-1.31.43-1.91.05-3.83.02-5.74.02-.51 0-3.23-1.11-3.9-1.55-2.39-1.56-4.73-3.19-7.17-4.65-3.77-2.26-7.29-5-11.61-6.25-.94-1.28-2.29-1.04-3.78-.99-.57.92-1.15 1.96-1.83 2.92-1.8 2.55-3.23 5.36-5.52 7.55-1.14 1.09-2.29 2.19-3.35 3.36-1.87 2.06-4.07 3.68-6.42 5.14-1.35.84-2.42 2.03-3.91 2.75-2.37 1.16-4.64 2.42-7.41 2.22-.99-.07-2 .02-2.99-.02-1.9-.07-3.47-.79-4.98-2.02-2.3-1.88-3.34-4.45-4.42-7.03-.15-.35-.16-.78-.17-1.18-.02-1.08.15-2.19-.04-3.24-.4-2.19 1.08-4.02 1.02-6.13 1.2-1.68 2.01-3.55 2.54-5.54 1.54-.94 1.97-2.83 3.6-3.86 1.61-1.01 3.19-2.02 4.95-2.72 1.68-.66 3.26-1.53 4.9-2.26 1.65-.74 3.22-.93 4.92-.89.64.01 1.22.18 1.85.4 1.18.4 2.44.65 3.77.66 2.52.02 5.03.36 7.33.55 1.53-.82 1.61-2.27 1.97-3.4.59-1.86.5-3.93 1.64-5.65-.56-2.11 1.21-3.77 1.08-5.88-.08-1.33.69-2.7 1.06-4.06.79-2.96 1.46-5.96 2.39-8.88.55-1.71 1.08-3.42 1.64-5.13.53-1.64.66-3.42 1.76-4.85-.29-1.53.88-2.71 1.02-4.11.14-1.45.75-2.76.97-4.14.27-1.7.14-3.49.04-5.23-.09-1.64.04-3.3.58-4.79.36-.98.5-1.89.42-2.84-.26-2.97.69-5.85.55-8.81-.13-2.91-.12-5.83.01-8.74.06-1.4.54-2.78.81-4.18.09-.48.15-.97.13-1.45-.05-1.54.05-3.05.8-4.45.11-.2.2-.45.21-.67.17-4.02.6-8.05.39-12.05-.12-2.26-.32-4.54-.4-6.82-.02-.44-.47-.88-.47-1.32 0-1.54-.82-2.97-.54-4.56.13-.76-.2-1.57-.37-2.34-.3-1.38-.63-2.8-.67-4.28-.05-1.88-.5-3.78-1.05-5.59-.19-.63-.31-1.22-.37-1.86-.05-.47-.04-1.02-.27-1.39-.63-1.01-.78-2.08-.74-3.23.02-.46-.13-.95-.34-1.37-.43-.88-.76-1.75-.66-2.76.04-.37-.11-.79-.25-1.15-1.01-2.65-1.73-5.38-2.24-8.16-.1-.53-.34-1.04-.52-1.56-.15-.44-.46-.89-.43-1.32.06-1.01-.22-1.9-.66-2.77-.11-.21-.37-.4-.37-.61-.04-3.09-1.81-5.67-2.61-8.54-.59-2.12-2.25-3.94-3.39-5.92-1.72-3.02-3.36-6.08-5.49-8.85-1.46-1.9-2.86-3.85-4.32-5.75-.79-1.03-1.61-2.03-2.49-2.98-1.32-1.43-2.96-2.45-4.6-3.48-1.34-.84-2.63-1.74-4.01-2.53-2.27-1.31-4.75-2-7.14-2.96-.87-.35-1.76-.64-2.66-.91-.36-.11-.76-.07-1.34-.11.13 2.02-.26 3.76-.89 5.52-.43 1.21-.2 2.68-.54 4.04-.38 1.53-1.3 2.94-1.06 4.62.22 1.56-1.22 2.79-.97 4.38-1.26 2.53-2.07 5.28-3.85 7.54-1.3 1.65-2.89 3.14-3.82 4.96-.74 1.45-1.68 2.69-2.62 3.94-.97 1.3-2.09 2.5-3.18 3.7-1.47 1.63-3.37 2.67-5.21 3.81-1.62 1-3.25 2-5.08 2.38-1.79.37-3.3 1.39-5.17 1.64-1.73.23-3.39 1.14-5.01 1.93-2.84 1.38-5.88 2.12-8.88 3.01-.86.25-1.67.51-2.57.47-1.79-.09-3.48.39-5.18.87-.46.13-.96.12-1.45.12-4.41 0-8.82.04-13.23-.02-1.02-.01-2.04-.3-3.06-.48-.94-.16-1.95.36-2.86-.41-.3-.25-.96-.07-1.45-.07-2.66 0-5.33-.06-7.99 0-1.88.04-3.68-.17-5.42-.9-.21-.09-.48-.14-.7-.11-2.07.34-4.02-.58-6.07-.54-.68.01-1.42-.21-2.05-.49-1.68-.75-3.75 0-5.23-1.42-1.8.53-3.03-1.6-4.84-1.04-1.19-.83-2.67-.96-3.92-1.55-3.12-1.47-6.4-2.65-9.25-4.6-1.1-.75-2.05-1.94-2.64-3.14-1.43-2.91-2.94-5.85-2.54-9.29.06-.49.05-1 0-1.5-.22-2.53 1.02-4.55 2.04-6.73 1.1-2.35 3.18-3.83 4.56-5.91 1.27-1.92 3.49-2.82 5.29-4.18 2.3-1.74 5.14-2.28 7.69-3.47 1.91-.89 3.89-1.68 5.91-2.26 1.9-.54 3.69-1.27 5.5-2.03.79-.33 1.68-.43 2.47-.76.4-.17 1-.69.95-.95-.22-1.13.41-2.05.58-3.07.44-2.6 1.19-5.06 3.21-7 1.7-1.64 3.29-3.37 5.62-4.09 3.69-1.13 6.94-3.25 10.54-4.56.22-.08.43-.28.64-.28 1.87.06 3.6-.57 5.39-.96 1.88-.41 3.86-.4 5.8-.53.83-.06 1.66-.04 2.5 0 1.39.05 2.85-.11 4.13.3 1.33.43 2.71-.18 4.04.62.74.44 1.95.08 2.95.08 1.83 0 3.66-.06 5.49.02 1.53.07 3.04.37 4.57.45 1.58.08 3.16-.02 4.74.05.53.02 1.04.34 1.57.47.77.19 1.54.41 2.32.49.82.08 1.67-.04 2.49.03 1.19.11 2.49.08 3.51.58.92.46 1.75.39 2.62.38 2.6-.02 5.15.16 7.64.99.58.19 1.28.03 2.09.03 0-.56.13-1.02-.02-1.35-1.07-2.43-1.35-5.22-3.03-7.34-1.76-2.22-3.19-4.7-5.4-6.59-1.64-1.4-3.11-3.01-4.6-4.57-1.41-1.47-3.2-2.28-4.95-3.25-3.33-1.86-7.04-2.59-10.51-3.99-1.44-.58-2.98-.21-4.42-.92-1.29-.64-2.81-.65-4.29-.57-.45.02-.92-.2-1.38-.3-.31-.07-.7-.26-.93-.14-1.98 1.02-3.93-.4-5.89-.04-4.99-1.07-10.04-.22-15.05-.51-1.57-.09-3 .41-4.48.75-.38.09-.77.26-1.15.25-1.95-.03-3.79.66-5.66.88-3.12.37-5.88 1.76-8.85 2.49-.39.09-.79.12-1.19.13-1.16.02-2.33.03-3.5 0-1.78-.02-3.5.09-5.22.74-1.55.58-3.21.81-4.48 2.03-.19.19-.62.1-.9.24-1.29.63-2.62 1.15-3.62 2.29-1.39 1.59-3 2.92-4.87 3.97-1.18.66-2.21 1.66-3.17 2.64-1.69 1.72-3.6 3.21-5.17 5.08-1.55 1.84-3.41 3.41-5.08 5.16-1.93 2.02-3.88 4.02-5.65 6.18-1.61 1.97-2.88 4.22-4.5 6.18-1.34 1.61-2.41 3.36-3.41 5.17-1.52 2.74-2.97 5.51-4.05 8.47-.75 2.05-1.51 4.1-2.12 6.2-.55 1.89-1.5 3.69-1.4 5.75.02.29-.12.62-.26.89-.89 1.69-.47 3.78-1.69 5.39-.24.32-.05.97-.03 1.47.05 1.62-.5 3.14-.82 4.69-.08.39-.15.79-.18 1.19-.18 2.3-.44 4.59-1.28 6.77-.17.44-.29.98-.2 1.42.31 1.59-.28 3.08-.61 4.54-.21.95-.37 1.87-.42 2.84-.16 3.02-.43 6.04-.46 9.06-.02 2.02.36 4.04.45 6.06.08 1.99-.11 4.01.07 5.99.1 1.14.5 2.36 1.12 3.3.94 1.41 1.5 2.93 1.94 4.52.15.53.28 1.07.37 1.61.09.47-.06 1.1.2 1.41.99 1.21.83 2.59.79 3.96-.08 2.62.88 5.17.51 7.81.99 2.97.25 6.04.52 9.05.11 1.2-.27 2.38.4 3.62.54 1-.34 2.41.56 3.54.24.3-.02.97.02 1.47.11 1.2-.24 2.42.46 3.6.29.49.26 1.41 0 1.95-.81 1.67-.29 3.4-.48 5.09-.14 1.27-.33 2.54-.5 3.81-.16 1.19.4 2.48-.49 3.57.23 2.44-.48 4.94.43 7.35.08.22.09.49.05.72-.33 2.14.53 4.19.51 6.31-.02 2.16-.26 4.37.06 6.48.73 4.77.34 9.54.41 14.31.08 4.91.02 9.82.02 14.73s.32 9.68-.07 14.48c-.79 9.93-.2 19.86-.45 29.79-.02.86-.35 1.7-.47 2.56-.13.87.19 1.77-.45 2.6-.23.29-.16 1.06.07 1.42 1.46 2.33 1.42 4.91 1.38 7.5 0 .33-.13.76.02.98 1.11 1.61.83 3.53 1.26 5.29.32 1.31.61 2.64.68 3.98.06 1.23.07 2.42.8 3.48.13.19.22.43.24.65.18 1.85.4 3.71.48 5.57.05 1.13.9 2.12.52 3.31.98.93.28 2.3.93 3.43.56.96.11 2.48.63 3.48.92 1.8.57 3.94 1.77 5.61.46 3.21 2.2 6.05 2.69 9.26.13.82.65 1.58.97 2.38.98 2.47 1.95 4.94 2.91 7.42 1.07 2.79 2.17 5.58 3.99 7.99.17 1.95 1.4 3.5 2.18 5.17 1.37 2.9 2.85 5.79 4.86 8.37 2.26 2.92 4.7 5.7 6.84 8.72 1.64 2.31 3.69 4.32 5.45 6.54 2.28 2.88 4.77 5.57 7.21 8.32 1.41 1.59 3.03 3.02 4.29 4.71 2.39 3.21 5.52 5.67 8.15 8.63 1.91 2.15 4.36 3.59 6.61 5.29.19.14.42.24.59.4 3.41 3.24 7.13 6.22 10.16 9.78 5.1 5.97 10.62 11.51 16.19 17.01 1.3 1.29 2.9 2.28 4.35 3.42 1.39 1.1 2.76 2.23 4.15 3.34 2.07 1.67 4.22 3.26 6.2 5.02 2.6 2.31 5.25 4.54 8.07 6.58 1.11.81 2.13 1.75 3.18 2.64 1.3 1.11 2.57 2.25 3.88 3.36.23.19.55.32.85.37 1.89.35 3.54 1.05 4.71 2.69.54.74 3.41 2.17 4.61 2.83 2.29 1.25 4.74 2.06 7.14 3 2.69 1.06 5.45 1.95 8.15 2.97 2.07-.34 3.79 1.35 5.88 1.03.4-.06.93.21 1.3.48.57.41 1.15.56 1.83.5.98-.08 1.89.09 2.83.45.79.31 1.76-.2 2.59.49.3.25.96.05 1.46.05 1.75 0 3.5-.03 5.24 0 1.71.04 3.33-.56 5.06-.62 1.15-.04 2.36-.4 3.57-.39 1.25.01 2.52.14 3.74-.04 1.06-.16 1.9-1.23 3.13-.96 1.46-1.41 3.67-1.41 5.17-2.87.73-.71 1.56-1.59 2.82-1.67.39-.03.78-.55 1.13-.89 2.13-2.11 4.32-4.16 6.33-6.37 1.62-1.78 3.01-3.77 4.49-5.67.78-1.01 1.49-2.09 2.32-3.06 2.52-2.97 3.61-6.59 4.69-10.22.4-1.35.69-2.74 1.15-4.07.51-1.47 1.46-2.86 1.68-4.36.26-1.82 1.16-3.43 1.26-5.33.08-1.42.23-3.01 1.05-4.33.04-.07.15-.13.15-.19 0-2.02.93-3.87 1.15-5.82.22-1.99.31-3.93.92-5.91.52-1.66.11-3.61.11-5.6-.65-.04-1.28-.11-1.91-.11-2-.01-3.99 0-5.99 0-1.13 0-2.22.02-3.33-.45-.93-.39-2.07.28-3.09-.47-.44-.32-1.29-.09-1.95-.07-2.6.08-5.14-.18-7.63-.98-.45-.15-.99-.02-1.49-.02-1.17 0-2.33.06-3.49-.02-1.11-.08-2.28-.13-3.3-.52-1.76-.68-3.55-.44-5.33-.44-2.68 0-5.29-.25-7.89-.96-1.2-.33-2.57-.37-3.81-.43-1.84-.08-3.38-.92-5.05-1.35-1.62-.41-3.22-1.39-4.51-2.49-1.32-1.12-2.92-1.99-3.78-3.64-.45-.86-.98-1.66-.83-2.68.21-1.43-.5-2.97.5-4.31-.33-1.19 1.18-1.5 1.19-2.53 1.77-1.79 3.46-3.67 5.79-4.81 1.06-.52 2.14-1.04 3.07-1.74 1.29-.98 2.82-1.34 4.25-1.97.93-.41 1.91-.78 2.71-1.37.8-.59 1.59-.93 2.55-1.19.78-.21 1.43-.8 2.34-1.05 1.05-.29 2.17-.85 3.19-1.41 2.57-1.42 5.52-1.75 8.16-2.95.41-.19.99-.05 1.48 0 1.73.19 3.45-.03 5.04-.57 1.22-.41 2.38-.42 3.58-.43 1.91-.02 3.83.01 5.74-.04.87-.02 1.72.14 2.62-.39.6-.35 1.75-.3 2.38.05.83.47 1.6.27 2.39.34 1.91.17 3.95-.47 5.64.98 1.33-.08 2.43.61 3.63.97 3.54 1.05 5.66 3.46 7.32 6.52.52.96.77 1.9.74 2.98-.05 1.75-.15 3.51.02 5.24.18 1.83-.67 3.51-.52 5.31-1.16 1.37.13 3.26-1.25 4.76 1.42.22 2.44.32 3.68-.23 3.35-1.49 6.82-2.72 10.24-4.04.14-.06.41.07.48 0 2.16-2.29 5.38-2.54 7.95-4.14 2.53-1.57 5.27-3.05 8.25-3.87.51-.14.91-.63 1.38-.93 1.8-1.15 3.61-2.29 5.41-3.43 1.61-1.02 3.08-2.14 4.25-3.71 1.16-1.57 2.5-3.03 3.89-4.41 1.84-1.83 2.39-4.23 3.23-6.52.11-.29.09-.63.21-.92.24-.58.64-1.12.77-1.72.13-.64.03-1.33.03-1.98-.79-.87-1.79-.96-2.87-.93-.63.02-1.24-.14-1.87-.3-1.38-.33-2.8-.26-4.28.23-1.35.45-2.97.18-4.46.06-1.44-.12-2.97.55-4.33-.44-.17-.12-.48-.03-.73-.04-4.69-.16-9.4-.72-14.05-.38-5.95.43-11.88.23-17.81.41-1.02.03-2.04.31-3.06.47-.94.15-1.95-.3-2.86.47-.29.24-.96.03-1.46.03h-11.73c-1.41 0-2.95.34-4.21-.09-1.22-.42-2.48-.29-3.7-.82-1.27-.55-2.85-.39-4.28-.6-.78-.11-1.54-.34-2.32-.48-.7-.13-1.47.26-2.12-.38-.18-.18-.62-.12-.94-.11-1.94.03-3.82-.22-5.64-.97-.43-.18-.99-.04-1.48-.04-1.91 0-3.83.05-5.74-.02-1-.03-1.9.19-2.78.62-.35.17-.73.39-1.09.38-.98-.02-1.89.32-2.82.48-4.3.71-8.35 2.12-12.35 3.82-2.8 1.19-5.57 2.57-8.47 3.42-1.63.48-3.24 1.2-5.01 1.36-1.46.13-2.86.83-4.32 1.13-2.73.56-5.38 1.49-8.26 1.34-4.21-.22-7.48-2.1-10.17-5.21-.05-.05-.03-.17-.07-.22-1.94-1.86-1.96-4.22-2.06-6.71-.16-3.9 1.47-6.93 3.79-9.8 1.31-1.62 2.43-3.4 3.79-4.96 1.68-1.92 3.43-3.8 5.33-5.49 2.2-1.96 4.97-3.1 7.35-4.85 1.92-1.41 4.32-2.19 6.55-3.14 1.79-.77 3.65-1.39 5.47-2.09.15-.06.27-.31.38-.3 2.3.24 4.28-1.28 6.58-1.15 2.07.12 4.16.05 6.24.02 1.3-.02 2.55.09 3.82.47 1.14.34 2.34 0 3.59.43 1.34.46 2.97.22 4.45.07 1.35-.14 2.58.25 3.8.58 1.3.36 2.55.79 3.9 1 1.37.21 2.68.82 4 1.29 1.77.63 3.45 1.44 5.3 1.87 2.15.5 4.15.57 5.96-.87 3.56-2.82 7.66-4.86 11.21-7.69 1-.8 2.31-1.09 3.3-1.74 1.32-.86 2.86-.86 4.17-1.64.91-.55 2.02-.92 3.21-.78 1.46.18 2.81-.84 4.31-.49 3.32.78 6.88.31 10.05 1.88 1.55-.33 2.48 1.53 4.05 1.14 1.19.82 2.37 1.64 3.56 2.44.32.22.73.33 1.01.59 2.07 1.88 4.11 3.79 6.19 5.67 1.02.92 2.08 1.82 3.18 2.64 1.07.8 2.33 1.34 3.5 1.91 1.46.7 3.17.91 4.8 1.18 1.67.27 3.44.14 5.05.58 1.63.46 3.44.48 4.88 1.6.35.27.9.24 1.33.42 2.63 1.14 4.38 3.27 6.21 5.36 1.07 1.23 1.16 2.95 2.29 4.12.1.1.2.31.17.43-.44 1.5.76 2.37 1.26 3.37 2.7.6 5.17-.29 7.67-.89.91-.22 1.63-.89 2.51-1.28 1.65-.73 3-2.1 4.61-2.92 2.19-1.12 3.85-2.89 5.72-4.37 3.2-2.53 4.82-2.6 7.68.35 0 .34-.06.75 0 1.15.33 1.98-.71 3.38-1.93 4.73-2.74 3.03-6.28 4.98-9.56 7.3-2.91 2.06-6.11 3.48-9.43 4.7-.21.08-.41.24-.63.27-1.42.19-2.85.36-4.48.56Zm-297.9-199.44.77-.23c.2-.49.58-.99.57-1.48-.03-1.04-.35-2.06-.38-3.1-.07-1.99.02-4-.07-5.99-.09-2.03-.49-4.06-.44-6.08.07-2.75-1.26-4.63-3.19-6.28-1.18-1.01-2.39-2-3.49-3.09-.92-.92-1.64-2.04-2.57-2.95-1.11-1.09-2.27-2.15-3.53-3.04-2.3-1.62-4.55-3.44-7.66-3.08-.31.04-.63-.09-.95-.13-.96-.11-1.97-.45-2.88-.28-2.26.41-4.47 1.07-6.61 1.93-1.03.41-2.15.69-3.07 1.28-3.09 1.99-5.95 4.27-8.53 6.92-1.65 1.7-2.31 3.88-2.91 5.98-.47 1.66-.28 3.54-.55 5.32-.26 1.71-.15 3.49-.05 5.23.09 1.53.19 3.1.64 4.54.59 1.89 1.49 3.68 2.32 5.48 1.54 3.34 3.58 6.39 5.55 9.48 1.38 2.17 3.01 4.18 4.44 6.33 2.72 4.06 4.69 8.48 5.96 13.2.43 1.61.94 3.27.96 4.92.05 4.32.47 8.65-.87 12.93-1 3.19-1.47 6.55-2.05 9.85-.11.62-.5 1.25-.44 1.84.25 2.42-.92 4.57-1.29 6.87-.46 2.85-.78 5.73-1.24 8.58-.25 1.52.34 3.13-.49 4.6-.1.18-.1.57.03.72.77.88.31 1.91.4 2.87.09.99-.13 2.03.08 2.99.63 2.79 1.33 5.58 2.5 8.19.84 1.86 1.62 3.9 3.76 4.81.88.37 1.73.79 2.62 1.11 2.64.96 5.27 1.84 8.17 1.86 3.02.02 6.1-.52 9.09.43.23.07.51.07.74 0 2.55-.69 4.98-1.64 7.04-3.22v-28.31c0-.07-.05-.15-.1-.21-.05-.07-.12-.11-.25-.24-1.52-.07-2.84.69-4.22 1.33-2.28 1.05-4.57 2.03-7.18 1.73-.9-.1-1.83-.08-2.74-.02-1.05.07-1.87-.4-2.67-.97-.46-.33-.95-.65-1.33-1.07-1.66-1.79-2.89-3.78-2.99-6.33-.03-.8.11-1.58-.33-2.4-.32-.58-.34-1.55-.08-2.17.71-1.69.29-3.41.42-5.11.09-1.23-.12-2.53.16-3.7.48-1.98.87-3.93.85-5.97-.04-3.58.01-7.15.03-10.73 0-.5-.18-1.09.02-1.48 1.22-2.27-.35-4.47-.06-6.7-1.33-3.14-1.93-6.55-3.54-9.59-.44-.84-.58-1.91-1.18-2.58-.78-.86-.75-1.76-.79-2.74 0-.14-.16-.28-.25-.41-.79-1.06-.75-2.28-.75-3.51.01-1.66.03-3.33 0-4.99-.04-2.5.85-4.77 2.2-6.73 1.46-2.13 3.9-3.18 6.36-3.6 2.14-.36 4.45-.39 6.56.42 1.62.62 3.35.91 4.85 1.93 1.55 1.06 3.12 2.03 4.01 3.76.19.37.41.73.62 1.1Zm78.32-106.1c1.87-.09 3.09-.08 4.3-.24 1.42-.19 2.81-.71 4.23-.78 4.27-.22 8.56.16 12.83-.54 3.53-.58 7.03.59 10.57.52 2.84-.06 5.59.71 8.38 1.13.47.07.93.25 1.41.28 2.85.2 5.77 2.31 6.13 4.99.39 2.88 1.32 5.68 1.12 8.67-.17 2.68.03 5.37-1.04 7.93-.18.43-.07 1.02-.32 1.39-2.44 3.69-5.84 6.19-9.85 8.02-2.99 1.36-6.2.94-9.29 1.41-3.91.59-7.88-.2-11.81-.46-.3-.02-.59-.22-.88-.34-2.21-.87-4.42-1.76-6.65-2.59-1.11-.41-2.34-.58-3.4-1.1-2.56-1.24-4.71-3.1-6.91-4.87-1.15-.93-1.96-2.13-2.57-3.5-1.29-2.88-2.7-5.72-4.04-8.57-.7-1.48-1.35-1.84-2.9-1.46-.46.11-.89.46-1.34.46-2.47 0-4.64 1.18-6.93 1.81-2.5.68-4.92 1.74-7.28 2.84-2.18 1.02-4.51 1.96-6.02 3.95-1.59 2.11-3.22 4.21-4.28 6.67-.65 1.5-.6 2.94-.04 4.46.75 2.04 2.12 3.43 4.06 4.27 4.3 1.86 8.56 3.84 13.26 4.57 2.71 1.37 5.77 1.27 8.65 1.81 2.67.5 5.47.6 8.15 1.19 2.05.45 4.07.33 6.11.43.58.03 1.2-.12 1.74.03 3.59 1.06 7.26.97 10.94.97h6.99c1.3 0 2.58.06 3.86-.45.87-.35 1.89-.55 2.82-.51 3.91.14 7.31-1.64 10.85-2.82 1.38-.46 2.83-.99 4.11-1.74 1.93-1.12 4.22-1.53 5.91-3.12 1.01-.95 2.06-1.88 3.19-2.66 3.21-2.24 5.4-5.42 7.83-8.38 1.72-2.1 3.08-4.47 4.43-6.84 1.2-2.1 2.17-4.28 3.01-6.49 1.6-4.16 2.53-8.53 3.52-12.88.37-1.63-.17-2.57-1.75-2.98-1.7-.44-3.43-.87-5.17-1-2.69-.2-5.41.05-8.09-.56-1.41-.32-2.89-.34-4.33-.54-.29-.04-.55-.31-.84-.45-1.43-.68-2.84-1.82-4.3-1.9-2.29-.12-4.54-.72-6.83-.62-4.46.19-8.89-.41-13.33-.53-.86-.02-1.8-.21-2.53-.63-.82-.47-1.72-.53-2.38-.28-2.35.89-4.77 1.09-7.2.91-2.29-.16-4.28.49-6.27 1.49-3.29 1.67-6.08 3.93-8.36 6.8-.52.66-.81 1.51-1.47 2.81ZM422 495.04c-.03-.44.12-1.09-.14-1.51-1.71-2.81-4-4.85-7.45-5.23-.54-.06-1.06-.32-1.58-.5-.45-.15-.9-.45-1.34-.45-1.15 0-2.24-.2-3.34-.52-1.33-.39-2.68-.67-4.09-.55-.31.03-.64-.06-.94-.15-4.59-1.39-7.82-4.76-11.26-7.8-1.15-1.02-2.12-2.27-3.07-3.5-2.13-2.75-5.46-3.22-8.37-4.49-1.98.15-3.65-1.3-5.65-1.09-3.5-1.19-6.76-.13-9.74 1.48-2.17 1.17-4.43 2.4-6.07 4.41-.39.48-1.02.77-1.58 1.09-2.03 1.14-4.16 2.26-5.24 4.41-.79 1.58-2.18 1.94-3.52 2.1-1.61.19-3.15.59-4.72.92-3.03.64-5.94 0-8.65-1.44-2.62-1.4-5.22-2.77-8.29-2.93-.53-.03-1.05-.32-1.58-.49-.45-.15-.9-.46-1.34-.44-3.86.16-7.71-.38-11.59.38-2.71.53-5.54.39-8.32.57-.65.04-1.5-.09-1.89.27-1.06.95-2.4.83-3.6 1.23-2.7.9-5.6 1.28-7.98 3.02-2.14 1.58-4.68 2.58-6.47 4.68-2.67 3.12-5.23 6.32-8.14 9.24-1.15 1.16-1.56 2.78-1.39 4.51.2 2.01 2.19 4.02 3.93 4.02 2.09 0 4.3.58 6.21-.82.12-.09.3-.13.45-.13 1.99.07 3.69-.98 5.54-1.45 3.53-.9 7-2.08 10.13-4.03 1.99-.1 3.53-1.38 5.29-2.08 1.56-.62 2.92-1.68 4.77-1.52.65.06 1.35-.41 2.03-.62.38-.12.76-.26 1.15-.31 2.96-.31 5.9-.63 8.79-1.43 1.22-.34 2.63-.09 3.94.07 1.67.2 3.31.68 4.98.83 2.85.26 5.72.36 8.59.53.17 0 .34-.03.5.01 3 .89 6.08 1.01 9.18 1.01.47 0 .94.18 1.42.22 1.22.1 2.56.49 3.63.13 1-.33 1.93-.31 2.88-.34 2.66-.07 5.32-.05 7.98-.07.83 0 1.77.25 2.47-.06 1.21-.53 2.42-.31 3.62-.44 1.2-.13 2.39-.42 3.59-.44 5.16-.07 10.31-.07 15.47-.07 5.07 0 10.16-.19 15.22.06 5.07.25 10.12-1 15.18-.07.06.01.13-.08.36-.24Zm-64.01 49.15c0 .07.01.13.02.2 1.94-.2 3.88-.43 5.82-.6 1.44-.13 1.65-.33 1.75-1.76.08-1.13-.03-2.37.4-3.36.48-1.11.57-2.18.61-3.31.02-.49.05-.97.13-1.45.32-1.99.86-3.94.83-5.98-.03-2-.95-3.51-2.78-4.13-2.67-.9-5.35-1.66-8.25-1.55-3.32.13-6.65.12-9.98.02-3.63-.11-7.23.21-10.83.48-.25.02-.55-.08-.74.03-2.1 1.17-4.51 1.51-6.66 2.56-3.65 1.79-7.28 3.6-10.96 5.32a11.25 11.25 0 0 0-2.81 1.86c-1.67 1.49-2.86 3.33-4.08 5.16-.17.25-.28.58-.32.88-.2 1.65 1.04 3.04 2.92 3.15 2.94.17 5.88.08 8.84.42 3.99.46 8.03.07 12.07.48 4.12.42 8.28.37 12.43 1.01 3.79.58 7.71.4 11.56.55ZM255.57 207.42c-.33-.21-.71-.51-1.13-.71-1.43-.68-2.84-1.79-4.31-1.88-2.04-.12-4.03-.63-6.08-.61-6.27.06-12.56-.27-18.81.48-.96.11-1.88-.05-2.87.43-.96.47-2.19.51-3.3.53-2.57.04-4.78.93-6.78 2.39v6.57c1.33 1.13 2.75 2.36 4.2 3.56 2.37 1.96 5.14 3.21 7.95 4.33 2.66 1.06 5.49 1.78 8.29 2.05 4.11.4 8.25.28 12.25-1.35 2.6-1.06 5.01-2.45 6.76-4.48 2.71-3.15 4.66-6.8 3.84-11.31Zm-119.2 101.03c-1.15.26-2 .49-2.85.63-2.28.37-4.38-.31-6.22-1.55-1.81-1.21-3.74-1.01-5.68-.94-1.02.03-1.92.74-2.07 1.67-.27 1.76-.55 3.63.17 5.34.65 1.54 1.65 2.92 2.35 4.44.56 1.23 1.43 2.26 1.87 3.59.87 2.63 2.04 5.17 3.05 7.75.49 1.25 1.28 2.52 1.3 3.8.02 2.06.52 4.05.6 6.09.07 1.78-.38 3.62.45 5.35.13.27.14.72 0 .98-.83 1.56-.21 3.39-.94 4.95.4 2.43-1.02 4.52-1.29 6.86-.21 1.82-.81 3.61-.74 5.5.06 1.58.01 3.16.01 4.73 1.63 1.73 1.99 1.79 3.92.72.34-.19.76-.21 1.13-.35 2.01-.72 4.07-1.35 5.94-2.69 0-.56.02-1.13 0-1.7-.19-4.11.03-8.21-.39-12.34-.53-5.23-.06-10.54-.53-15.82-.32-3.63-.07-7.31-.07-10.97v-16.01Zm167.48 109.13c.69-.21 1.39-.62 2.05-.57 1.07.08 1.57-.78 2.36-1.12 2.43-1.05 4.74-2.36 6.73-4.12 3.39-2.99 6.25-6.43 8.42-10.41.45-.82.09-1.74-.79-1.9-.32-.06-.68-.06-.99 0-2.74.59-5.71-.17-8.28 1.41-2.42-.17-4.21 1.39-6.21 2.35-1.29.62-2.43 1.53-3.7 2.2-2.64 1.38-3.68 3.93-4.74 6.42-.29.67-.18 1.71.14 2.4.94 2.06 2.53 3.33 5 3.32Z" class="face" style="fill:var(--color-foreground)"/>
  <path d="M30.43 306.3c.51 2.38-.76 4.21-1.96 5.98-1.44 2.12-3.07 4.12-4.63 6.16-.58.77-1.31 1.47-1.74 2.31-2.2 4.34-4.68 8.52-6.18 13.23-.82 2.57-1.15 5.12-1.4 7.74-.19 2.02-.4 4.04-.49 6.07-.08 2.08-.02 4.16-.02 6.24 0 .98 1.1 5.52 1.49 6.46 1.32 3.15 2.87 6.17 5.01 8.85 1.52 1.9 3.12 3.74 4.71 5.59 1.26 1.46 2.43 2.94 3.34 4.68.52.99.48 1.92.38 2.84-.07.69-.49 1.38-1.37 1.73-1.63.64-2.14.77-3.8.26-5.31-1.66-9.93-4.44-13.59-8.64a49.486 49.486 0 0 1-4.58-6.19c-.91-1.44-1.38-3.15-2.05-4.74-.33-.8-.81-1.56-.97-2.39-.48-2.49-1.16-4.94-1.6-7.44-.26-1.46-.02-3.07-.92-4.41.23-2.78-.47-5.6.42-8.34.05-.15.06-.31.08-.47.17-2.02.24-4.06.54-6.06.21-1.39.62-2.77 1.13-4.08.7-1.83 1.5-3.63 2.39-5.38 1.37-2.71 2.94-5.26 4.95-7.61 2.6-3.05 5.03-6.29 8.08-8.88 2.07-1.76 3.8-4.05 6.47-5.04 3.09-1.15 3.96-1 6.01 1.17.11.12.22.25.32.36Z" class="wave wave-outer" style="fill:var(--color-accent)"/>
  <path d="M53.21 313.57c.62.6 1.22 1.18 1.96 1.9-.53 1.07-.99 2.15-1.57 3.16-1.51 2.6-3.2 5.1-4.59 7.77-.9 1.72-1.73 3.62-1.96 5.52-.27 2.25-1.58 4.15-1.72 6.41-.07 1.16-.72 2.27-.83 3.43-.26 2.76-.49 5.54-.49 8.31 0 2.15.38 4.28.92 6.4.52 2.06 1.71 3.72 2.76 5.47 1.51 2.52 3.2 4.93 4.75 7.43.45.72.68 1.58.97 2.4.21.6-.14 1.05-.42 1.56-1.08 1.95-3.06 2.67-5.07 1.85-1.95-.79-3.6-2.02-5.23-3.28-1.16-.89-2.41-1.75-3.31-2.87-1.35-1.68-2.78-3.29-3.92-5.16-1.55-2.53-2.5-5.24-3.31-8.04-.13-.46-.12-.97-.12-1.45 0-3.08-.05-6.16.02-9.23.03-1.27.17-2.58.52-3.8.64-2.18 1.14-4.4 1.93-6.55 1.71-4.69 3.75-9.21 6.78-13.2 1.33-1.75 2.91-3.33 4.41-4.95 2.03-2.2 4.55-3.19 7.54-3.06Z" class="cls-5 wave wave-center" style="fill:var(--color-accent)"/>
  <path d="M74.12 322.05c1.52 1.16 1.46 2.92 1.72 4.41.15.87-.57 1.92-.98 2.85-1.27 2.87-2.86 5.62-3.63 8.68-.86 3.4-2.12 6.74-1.79 10.36.31 3.38 1.21 6.36 4.33 8.32 1.5.95 2.77 2.28 4.12 3.42v2.64c-.95 1.25-2.25 1.74-3.95 1.8-3.56.13-6.4-1.21-8.85-3.66-2.52-2.53-4.91-5.18-6.4-8.46-1.18-2.59-2.21-5.26-2.24-8.2-.01-.86-.45-1.72-.44-2.57.03-4.42 1.2-8.43 4.01-11.99 1.23-1.56 2.57-2.98 3.97-4.34 2.13-2.07 4.67-3.32 7.73-3.26.82.02 1.65 0 2.4 0Z" class="cls-3 wave wave-inner" style="fill:var(--color-accent)"/>
  <path d="M255.57 207.42c.82 4.51-1.12 8.16-3.84 11.31-1.75 2.03-4.16 3.42-6.76 4.48-4 1.63-8.14 1.75-12.25 1.35-2.8-.27-5.64-.99-8.29-2.05-2.81-1.12-5.58-2.37-7.95-4.33-1.45-1.2-2.87-2.43-4.2-3.56v-6.57c2-1.45 4.21-2.34 6.78-2.39 1.11-.02 2.34-.06 3.3-.53.98-.49 1.91-.32 2.87-.43 6.26-.75 12.54-.42 18.81-.48 2.04-.02 4.04.48 6.08.61 1.47.09 2.89 1.2 4.31 1.88.43.2.81.5 1.13.71Z" class="eye" style="fill:var(--color-accent)"/>
</svg>
