  <svg
      version="1.1"
      viewBox="0 0 1235.4 366.5"
      xmlns="http://www.w3.org/2000/svg"
    >
      <g class="group letter-group">
        <path
          d="m616.2 180.3c3.8 4.4 7.3 8.6 11.2 13 4.8-7.3 4.6-15.6 6.7-23.5h24.6c-1.5 14.6-5.1 28.4-14.4 40.3 4.5 5.2 11 6.9 16.7 10.9-4.9 7.5-9.9 14.8-14.9 22.1-8.2-3.9-15.6-8.3-22.2-14.1-1.3 0.7-2.5 1.3-3.6 1.9-15.1 7.5-30.8 10.3-47.4 6.6-6-1.4-11.5-3.8-16.3-7.7-10-8.1-13.8-18.6-10.8-31.2 3.2-13.3 11.3-22.9 23.4-29.1 1.9-0.9 3.8-1.8 5.9-2.7l-0.9-6.6c-2.8-23.1 16.2-43.1 39.5-41.4 3.6 0.3 7.4 0.9 10.7 2.2 12.9 4.9 19 15.8 15.9 30-2.5 11.6-9.2 20.4-19.4 26.6-1.3 0.8-2.7 1.5-4.7 2.7zm-9.6 30.9c-2.3-2.7-4.1-4.7-5.8-6.8-3.9-4.7-7.9-9.5-11.8-14.2-0.8-1-1.6-2.1-3.2-1.7-3.9 1.1-7.9 2.1-11.1 4.8-6.4 5.3-5.9 12.5 1.2 16.8 0.6 0.3 1.1 0.7 1.7 1 9.4 4.2 18.8 3.4 29 0.1zm-4.8-50.8c3-1.3 5.9-2.2 8.5-3.6 1.6-0.9 3.1-2.5 4.1-4.1 2.5-4.3 1.2-7.3-3.7-8.5-1.9-0.5-3.9-0.6-5.8-0.3-2.8 0.5-4.6 2.3-5.2 5.2-0.8 3.8 0 7.3 2.1 11.3z"
          class="letter letter-5"
          data-letter-id="5"
        />

        <path
          d="m750.5 238.4v-119.7c8.3-0.6 16.5-0.2 24.7-0.3 8.4-0.1 16.8 0 25.2 0h24.8 25v25.1h-37.1-36.9c-0.8 3.1-1 16.8-0.3 22.6h74.4v24.9c-1.5 0.1-3.1 0.2-4.6 0.2h-65-4.9v22.4c1.5 0.1 3 0.3 4.5 0.3h65 5v24.2c-2.8 1-95 1.2-99.8 0.3z"
          class="letter letter-6"
          data-letter-id="6"
        />
        <path
          class="letter letter-1"
          d="m0 238.3v-119.1c2.9-1 95.4-1.1 99.6-0.1v24.4c-5 0-9.9 0.1-14.9 0.1h-15-14.6-15-15.1v22.7h74.7c0 8.4 0.1 16.3 0 24.7-1.8 0.1-3.4 0.3-5 0.3h-64.6-5.2c0 7.7-0.1 14.9 0 22.6h74.1c0.9 3.2 1.1 18.4 0.5 24.2l-0.3 0.3c-0.1 0.1-0.2 0.2-0.3 0.2-1 0.1-2.1 0.2-3.1 0.2-31.7 0-63.3-0.1-95-0.1-0.1 0.1-0.3-0.1-0.8-0.4z"
          data-letter-id="1"
        />
        <path
          d="m262 166.3h37.1 36.9c1 3.1 1.2 20.1 0.3 25-24.6 0.1-49.3 0-74.3 0v22.6c8.4 0.3 16.6 0.1 24.8 0.1h24.4 24.7c1 2.9 1.2 19.6 0.4 24.6h-99.2v-119.9h99.5v24.7c-5 0-9.9 0.1-14.9 0.1h-15-14.6-15-15.1v22.8z"
          class="letter letter-3"
          data-letter-id="3"
        />
        <path
          d="m1086.3 202.4c4.3 6.1 8.5 12.2 12.7 18.2 4.1 5.9 8.2 11.7 12.7 18.1-1.8 0.1-2.8 0.3-3.8 0.3-7.8 0-15.5-0.1-23.3 0.1-2.6 0.1-4.1-0.8-5.5-2.9-6.5-9.5-13.2-18.9-19.8-28.5-1.3-1.9-2.7-2.8-5.1-2.8-7.9 0.1-15.7 0.1-24 0.1-0.7 3.8-0.3 7.4-0.3 11-0.1 3.8 0 7.6 0 11.4v11.2h-24.8v-120c1.6-0.1 3-0.2 4.4-0.2h56.4c5.6 0 11.3 0.3 16.8 1.9 14.2 4 23.4 13.1 27.2 27.3 2.8 10.4 2.6 20.8-0.9 31-3.4 9.9-9.8 17.2-19.3 21.8-0.9 0.4-1.9 0.9-2.8 1.4l-0.6 0.6zm-56.1-22.8c1.2 0.1 2.1 0.2 3 0.2h36.2c2.1 0 4.2-0.3 6.2-0.7 5.5-1.1 8.7-4.6 10.2-9.8 1.4-4.9 1.3-9.9 0-14.8-1.5-5.6-5-9.1-10.8-10.1-2.1-0.4-4.2-0.7-6.2-0.7-11.8-0.1-23.6 0-35.4 0-1 0-2 0.2-3.2 0.3v35.6z"
          class="letter letter-8"
          data-letter-id="8"
        />
        <path
          d="m354.6 205.1c8.3-1.8 16.1-3.4 24-5.1 3.8 9.8 12.2 12.1 20.9 13.3 10.2 1.4 20.5 1.1 30.5-1.4 3.1-0.8 6.3-2.1 9-3.8 4.3-2.8 4.3-8 0-10.8-2.8-1.8-6.1-3-9.3-3.9-6.8-1.9-13.8-1.9-20.7-2-8.3-0.2-16.5-0.8-24.6-2.9-5.5-1.4-10.7-3.5-15.6-6.5-20.4-12.5-20.6-41.7 0.3-54.3 6.5-3.9 13.6-6.3 21-7.5 14.7-2.3 29.3-2.5 43.8 1.2 5.9 1.5 11.4 3.9 16.4 7.4 8.3 5.7 13.5 13.4 15.9 23.7-8.1 1.7-16 3.4-23.8 5.1-0.4-0.4-0.8-0.7-0.9-1-1.7-5.2-5.7-8.2-10.6-9.8-4.2-1.3-8.6-2.3-13-2.8-9.5-1-18.9-0.5-28.1 1.9-2.9 0.8-5.7 2-8.2 3.6-4.2 2.8-4.1 7.9 0 10.8 4.6 3.3 10.1 4.4 15.6 5 5.3 0.5 10.7 0.7 16.1 0.9 9.1 0.2 18.1 1 26.8 4 4.7 1.6 9.4 3.7 13.4 6.5 18.5 12.9 18.3 39.2-0.3 52-7.3 5-15.5 7.5-24.2 8.8-13.8 2-27.5 2.1-41.1-1.1-8-1.9-15.4-5.3-21.6-10.8-5.9-5.4-9.8-12.1-11.7-20.5z"
          class="letter letter-4"
          data-letter-id="4"
        />
        <path
          d="m1122.9 205c8.2-1.8 15.9-3.4 23.3-5 0.5 0.4 0.8 0.5 0.9 0.7 2.5 6.4 7.7 9.7 13.9 11.1 5.3 1.2 10.9 1.9 16.3 2.1 7.1 0.2 14.2-0.1 21.1-2.1 3-0.9 6-2 8.6-3.7 4.4-2.9 4.4-8.2-0.1-11-2.7-1.7-5.9-2.9-9-3.8-6.8-1.9-13.8-1.9-20.7-2-9.2-0.2-18.4-0.9-27.3-3.6-5.7-1.7-11.1-4.1-15.8-7.8-16.8-12.9-16.8-37.4 0.1-50.2 7.1-5.4 15.3-8.1 23.9-9.5 14.7-2.4 29.3-2.5 43.8 1.1 5.5 1.4 10.7 3.7 15.5 6.7 8.8 5.6 14.9 14.3 16.7 24.3-7.8 2.1-15.7 3.4-23.5 5.2-0.4-0.3-0.7-0.4-0.7-0.6-2.2-6.2-7.1-9.2-13-11-8.7-2.6-17.6-2.9-26.6-2-4.9 0.5-9.8 1.5-14.7 2.7-2.2 0.5-4.4 1.8-6.3 3.1-3.8 2.8-3.8 7.6 0.1 10.3 2.4 1.7 5.3 2.9 8.1 3.8 7.5 2.3 15.3 2.4 23 2.4 8.4 0 16.8 0.9 24.9 3.1 6.1 1.6 11.9 4.1 17 8 17 12.9 17 37.7 0 50.5-6.2 4.7-13.3 7.4-20.9 8.9-16.2 3.1-32.4 3.4-48.4-1-7-2-13.5-5.2-18.9-10.1-5.2-4.7-8.8-10.4-10.8-17.1-0.1-1-0.2-2-0.5-3.5z"
          class="letter letter-9"
          data-letter-id="9"
        />
        <path
          d="m991.5 238.9h-25.9c-1.5 0-2-0.9-2.5-2-1.2-2.6-2.4-5.2-3.7-7.8-0.6-1.2-1.2-2.3-1.7-3.5h-59.7c-2.1 4.3-4.3 8.8-6.4 13.1h-27.3c0.6-1.5 1-2.7 1.6-3.9 17.4-37.5 34.9-75 52.2-112.5 1.4-3 3-4.2 6.2-3.9 2.9 0.3 5.8 0.2 8.7 0 2.2-0.1 3.3 0.7 4.2 2.7 2.2 5.1 4.6 10 6.9 15 15.2 32.7 30.4 65.5 45.6 98.2 0.4 1.3 0.9 2.6 1.8 4.6zm-63.3-76.9c-0.3 0-0.6-0.1-0.9-0.1-5.9 12.6-11.8 25.3-17.8 38.3h36.3c-6-13.1-11.8-25.7-17.6-38.2z"
          class="letter letter-7"
          data-letter-id="7"
        />
        <path
          d="m180.6 238.7h-24.7c-0.1-1.4-0.2-2.7-0.2-4.1 0-9.6-0.1-19.2 0-28.8 0-2.3-0.6-4.3-1.7-6.3-13.9-25.5-28-51.1-42-76.6-0.7-1.2-1.3-2.5-2.1-4.1 1.6-0.1 2.6-0.3 3.6-0.3 7.1 0 14.2 0.1 21.3-0.1 2.6-0.1 4 0.9 5.2 3.2 8.6 15.8 17.3 31.5 26 47.3 0.7 1.2 1.4 2.4 2.4 4.1 1-1.6 1.8-2.8 2.4-4 8.6-15.6 17.3-31.2 25.8-46.9 1.3-2.5 2.8-3.6 5.8-3.5 6.8 0.2 13.7 0.1 20.5 0.1 1.1 0 2.3 0.2 4 0.3-0.9 1.7-1.5 2.9-2.2 4.1-14 25.4-27.9 50.9-41.9 76.2-1.3 2.3-1.8 4.5-1.8 7.1 0.1 9.3 0 18.6 0 28-0.2 1.3-0.3 2.7-0.4 4.3z"
          class="letter letter-2"
          data-letter-id="2"
        />
      </g>
      <g class="group word-group">
        <path
          d="m443.2 300.2h8.9c10.2 21.9 20.4 43.9 30.8 66.2-1.2 0.2-2 0.6-2.8 0.6-2.9 0.1-5.8-0.1-8.7 0.1-2.7 0.2-4.5-0.6-5.4-3.3-0.5-1.5-1.4-2.8-2.1-4.2h-32.9c-0.9 1.7-1.8 3.6-2.7 5.5-0.5 1.1-1.2 2-2.6 2h-13c0.4-3.2 26.7-60.5 30.5-66.9zm4.6 24.2c-3.1 4.7-9.1 18-9.4 20.8h19c-3.3-7.1-6.3-13.7-9.6-20.8z"
        />
        <path
          d="m511.5 340.6v-13.5c3-0.8 31.6-1 36.6-0.3 3.6 21.7-7.4 37.4-26.1 39.7-4.8 0.6-9.8 0.6-14.5-0.2-13.8-2.1-22.8-11.3-25.1-25.1-1-6.3-0.9-12.6 0.8-18.8 2.7-10.1 9-17.2 19-20.4 9-2.9 18.1-2.7 27.1 0.3 5.2 1.8 9.6 4.9 12.9 9.3 0.8 1 1.4 2.1 2.3 3.6-4.2 2.3-8 4.5-11.9 6.6-7-8.5-15.9-8.8-25.3-6.6-5.6 1.3-9 5.2-10.5 10.7-1.4 5-1.3 10.2 0 15.2 1.5 5.7 5.1 9.4 10.8 10.9 5.2 1.4 10.4 1.4 15.6 0 5.6-1.6 9.3-5.1 10.7-11.4h-22.4z"
        />
        <path
          d="m557.2 300.3h55.2v13.6c-13.5 0.4-27.1-0.1-40.9 0.3v12c13.6 0.6 27.1-0.1 40.9 0.4v13.9h-40.9v12.4h40.9v13.5c-3.5 0.9-51.8 0.9-55.2 0v-66.1z"
        />

        <path
          d="m671.3 300.3h13.7v66.7c-3 0-5.9 0.2-8.7-0.1-1.2-0.2-2.5-1.3-3.4-2.4-8.2-9.1-16.3-18.2-24.4-27.3-2.5-2.8-5.1-5.7-7.6-8.5-0.7-0.7-1.4-1.4-2.8-2.7v40.7c-4.8 0.5-9.2 0.4-13.8 0.1v-66.8c3 0 5.9-0.2 8.7 0.1 1.2 0.1 2.5 1.3 3.4 2.3 7.9 8.8 15.8 17.6 23.7 26.4 3.5 3.9 7 7.8 11.3 11.5 0-3.3 0.1-6.6 0.1-9.9v-9.9-10.2c-0.2-3.1-0.2-6.4-0.2-10z"
        />

        <path
          d="m759.2 322.3c-4.4 1.2-8.7 2.4-13.1 3.7-0.6-1-1.1-1.8-1.4-2.6-1.8-4.3-5.1-6.9-9.5-8.2-5.3-1.5-10.6-1.5-15.9-0.1-5.7 1.5-9.3 5.2-10.7 10.9-1.3 5.1-1.3 10.1 0 15.2 1.5 5.7 5.2 9.3 10.9 10.8 5 1.4 10.2 1.4 15.2 0 4.8-1.3 8.5-4.1 10.3-8.9 0.2-0.5 0.5-0.9 0.7-1.4 0.1-0.1 0.2-0.2 0.7-0.6 3.9 1.1 8.2 2.3 12.8 3.5-2.1 7.8-6.3 13.8-13 17.7-6.4 3.8-13.5 4.9-20.9 4.6-2.7-0.1-5.5-0.5-8.2-1.1-11.7-2.7-19.1-9.9-22.2-21.5-1.8-6.9-1.8-13.8-0.3-20.7 3-13.2 12.6-21.8 26.4-23.4 6.3-0.7 12.6-0.5 18.7 1.4 10.1 3.5 16.4 10.2 19.5 20.7z"
        />
        <path
          d="m790.5 330.2c4.2-7.6 7.9-14.4 11.7-21.2 1.7-3 3.5-5.8 5.2-8.8 3.3-0.1 6.6-0.2 9.8-0.2h5.7c-0.9 1.8-1.5 3.1-2.2 4.3-7.1 13-14.2 26-21.5 39-1.3 2.3-1.9 4.5-1.8 7.1 0.1 4.1 0.1 8.1 0 12.2 0 1.3-0.1 2.6-0.2 4.1h-13.9c0-3.2-0.3-6.2 0.1-9.1 0.9-7.7-1.4-14.2-5.3-20.8-6.4-10.7-12.1-21.8-18.1-32.7-0.6-1.1-1.1-2.3-1.9-3.8h15.8c5.4 9.7 10.8 19.4 16.6 29.9z"
        />
      </g>
      <g class="group word-group">
        <path
          d="m578.4 0v13.4c-7.1 0.7-14.1-0.1-21.7 0.5-0.2 8.8-0.1 17.6-0.1 26.3v26.2h-13.8c0-4.3-0.1-8.6-0.1-12.9v-13.4-13-13.3h-21.5v-13.8h57.2z"
        />
        <path
          d="m588 0h13.7c0.4 8.6 0 17 0.2 26h31.2v-26h13.8v66.3c-4.4 0.4-8.8 0.1-13.6 0.1v-26h-31.5v25.8h-13.9c0.1-22 0.1-43.8 0.1-66.2z"
        />
        <path
          d="m672.6 13.9v12c4.6 0.4 9.1 0.1 13.7 0.2h13.4 14.3c0.3 4.8 0.2 9.2 0 14.1h-41.3c-0.3 4.2-0.2 8-0.1 12.5 13.8 0.2 27.4 0 41.3 0.1v13.6h-54.8c-0.9-2.9-1.1-61.5-0.2-66.3h55.1v13.4c-1.5 0.1-2.9 0.2-4.3 0.2h-32.7c-1.6 0-2.9 0.1-4.4 0.2z"
        />
      </g>
    </svg>