<?xml version="1.0" encoding="utf-8"?>
<!-- Generator: Adobe Illustrator 26.5.0, SVG Export Plug-In . SVG Version: 6.00 Build 0)  -->
<svg version="1.1" id="Layer_1" xmlns="http://www.w3.org/2000/svg" xmlns:xlink="http://www.w3.org/1999/xlink" x="0px" y="0px"
	 viewBox="0 0 971.2 598.4" style="enable-background:new 0 0 971.2 598.4;" xml:space="preserve">
<style type="text/css">
	.st0{fill:#221F20;}
</style>
<g>
	<g>
		<path class="st0" d="M1.2,352.4c-0.6-28-1.2-54.5-1.8-81.8c3.8-0.1,7.1-0.3,10.4-0.4c207.4-3.8,414.9-7.5,622.3-11.5
			c49.5-0.9,97.7,8.4,146.1,16.8c24,4.1,48.5,5,72.8,7.3c1.8,0.2,3.6-0.3,5.9-1.6c-53-23-105.8-46.4-151-82.9
			C660.8,162,623.8,118,590,69.9c26.8-23.3,53.4-46.3,80.6-69.9c10,16.1,19.1,31.4,28.8,46.4c29,45,61.7,87,102.3,122.3
			c41,35.6,87.1,63.2,136.3,85.7c7.1,3.3,14.1,7.2,21.5,9.6c8.5,2.8,11.8,7.4,11.1,16.4c-0.7,9.5-0.4,19.1,0.5,28.6
			c0.7,7.3-1.7,10.8-8.4,13.9c-43.3,20.1-84.6,43.9-122.6,73.1c-44.6,34.2-81.3,75.6-111.7,122.6c-15.2,23.5-29,48-43.4,72
			c-1.4,2.3-2.8,4.7-4.7,7.8c-27.7-22.3-54.9-44.3-82.9-66.8c32.1-49,67.9-94.5,111.8-133c43.9-38.4,96.1-63.5,149-87.3
			c-0.4-1.2-0.8-2.3-1.2-3.5c-14.5,1.5-29.2,2.1-43.5,4.6c-35.6,6.3-71,14.5-106.7,20.2c-24.9,4-50.2,6.7-75.3,7.2
			c-208.3,4.3-416.6,7.9-624.9,11.7C5.3,351.6,3.9,352,1.2,352.4z"/>
	</g>
</g>
</svg>
